<?xml version="1.0" encoding="UTF-8" standalone="no"?>
<!DOCTYPE svg PUBLIC "-//W3C//DTD SVG 1.1//EN"
 "http://www.w3.org/Graphics/SVG/1.1/DTD/svg11.dtd">
<!-- Generated by graphviz version 2.40.1 (20161225.0304)
 -->
<!-- Title: dependencies Pages: 1 -->
<svg width="640pt" height="211pt"
 viewBox="0.00 0.00 640.00 211.00" xmlns="http://www.w3.org/2000/svg" xmlns:xlink="http://www.w3.org/1999/xlink">
<g id="graph0" class="graph" transform="scale(1 1) rotate(0) translate(4 207)">
<title>dependencies</title>
<polygon fill="#ffffff" stroke="transparent" points="-4,4 -4,-207 636,-207 636,4 -4,4"/>
<text text-anchor="start" x="295.0091" y="-42.4" font-family="sans-serif" font-weight="bold" font-size="14.00" fill="#000000">Legend</text>
<polygon fill="#ffffb3" stroke="transparent" points="82,-10 82,-30 102,-30 102,-10 82,-10"/>
<text text-anchor="start" x="105.629" y="-15.4" font-family="sans-serif" font-size="14.00" fill="#000000"> &#160;Declarations</text>
<polygon fill="#8dd3c7" stroke="transparent" points="195,-10 195,-30 215,-30 215,-10 195,-10"/>
<text text-anchor="start" x="218.7251" y="-15.4" font-family="sans-serif" font-size="14.00" fill="#000000"> &#160;Module</text>
<polygon fill="#80b1d3" stroke="transparent" points="281,-10 281,-30 301,-30 301,-10 281,-10"/>
<text text-anchor="start" x="304.7812" y="-15.4" font-family="sans-serif" font-size="14.00" fill="#000000"> &#160;Bootstrap</text>
<polygon fill="#fdb462" stroke="transparent" points="378,-10 378,-30 398,-30 398,-10 378,-10"/>
<text text-anchor="start" x="401.6732" y="-15.4" font-family="sans-serif" font-size="14.00" fill="#000000"> &#160;Providers</text>
<polygon fill="#fb8072" stroke="transparent" points="474,-10 474,-30 494,-30 494,-10 474,-10"/>
<text text-anchor="start" x="497.7258" y="-15.4" font-family="sans-serif" font-size="14.00" fill="#000000"> &#160;Exports</text>
<g id="clust1" class="cluster">
<title>cluster_FeatureListModule</title>
<polygon fill="none" stroke="#000000" stroke-dasharray="1,5" points="8,-70 8,-195 624,-195 624,-70 8,-70"/>
</g>
<g id="clust2" class="cluster">
<title>cluster_FeatureListModule_declarations</title>
<polygon fill="none" stroke="#000000" points="454,-78 454,-130 616,-130 616,-78 454,-78"/>
</g>
<g id="clust4" class="cluster">
<title>cluster_FeatureListModule_imports</title>
<polygon fill="none" stroke="#000000" points="16,-78 16,-130 446,-130 446,-78 16,-78"/>
</g>
<!-- FeatureListComponent -->
<g id="node1" class="node">
<title>FeatureListComponent</title>
<polygon fill="#ffffb3" stroke="#000000" points="607.5884,-122 462.4116,-122 462.4116,-86 607.5884,-86 607.5884,-122"/>
<text text-anchor="middle" x="535" y="-99.8" font-family="Times,serif" font-size="14.00" fill="#000000">FeatureListComponent</text>
</g>
<!-- FeatureListModule -->
<g id="node2" class="node">
<title>FeatureListModule</title>
<polygon fill="#8dd3c7" stroke="#000000" points="381.8062,-187 378.8062,-191 357.8062,-191 354.8062,-187 258.1938,-187 258.1938,-151 381.8062,-151 381.8062,-187"/>
<text text-anchor="middle" x="320" y="-164.8" font-family="Times,serif" font-size="14.00" fill="#000000">FeatureListModule</text>
</g>
<!-- FeatureListComponent&#45;&gt;FeatureListModule -->
<g id="edge1" class="edge">
<title>FeatureListComponent&#45;&gt;FeatureListModule</title>
<path fill="none" stroke="#000000" d="M535,-122.1061C535,-141.3391 535,-169 535,-169 535,-169 391.8985,-169 391.8985,-169"/>
<polygon fill="#000000" stroke="#000000" points="391.8985,-165.5001 381.8985,-169 391.8984,-172.5001 391.8985,-165.5001"/>
</g>
<!-- CommonModule -->
<g id="node3" class="node">
<title>CommonModule</title>
<polygon fill="#8dd3c7" stroke="#000000" points="437.6681,-122 434.6681,-126 413.6681,-126 410.6681,-122 326.3319,-122 326.3319,-86 437.6681,-86 437.6681,-122"/>
<text text-anchor="middle" x="382" y="-99.8" font-family="Times,serif" font-size="14.00" fill="#000000">CommonModule</text>
</g>
<!-- CommonModule&#45;&gt;FeatureListModule -->
<g id="edge2" class="edge">
<title>CommonModule&#45;&gt;FeatureListModule</title>
<path fill="none" stroke="#000000" d="M353.9095,-122.1061C353.9095,-122.1061 353.9095,-140.991 353.9095,-140.991"/>
<polygon fill="#000000" stroke="#000000" points="350.4096,-140.9909 353.9095,-150.991 357.4096,-140.991 350.4096,-140.9909"/>
</g>
<!-- SharedModule -->
<g id="node4" class="node">
<title>SharedModule</title>
<polygon fill="#8dd3c7" stroke="#000000" points="308.4231,-122 305.4231,-126 284.4231,-126 281.4231,-122 209.5769,-122 209.5769,-86 308.4231,-86 308.4231,-122"/>
<text text-anchor="middle" x="259" y="-99.8" font-family="Times,serif" font-size="14.00" fill="#000000">SharedModule</text>
</g>
<!-- SharedModule&#45;&gt;FeatureListModule -->
<g id="edge3" class="edge">
<title>SharedModule&#45;&gt;FeatureListModule</title>
<path fill="none" stroke="#000000" d="M283.2791,-122.1061C283.2791,-122.1061 283.2791,-140.991 283.2791,-140.991"/>
<polygon fill="#000000" stroke="#000000" points="279.7792,-140.9909 283.2791,-150.991 286.7792,-140.991 279.7792,-140.9909"/>
</g>
<!-- FeatureListRoutingModule -->
<g id="node5" class="node">
<title>FeatureListRoutingModule</title>
<polygon fill="#8dd3c7" stroke="#000000" points="192.4241,-122 189.4241,-126 168.4241,-126 165.4241,-122 23.5759,-122 23.5759,-86 192.4241,-86 192.4241,-122"/>
<text text-anchor="middle" x="108" y="-99.8" font-family="Times,serif" font-size="14.00" fill="#000000">FeatureListRoutingModule</text>
</g>
<!-- FeatureListRoutingModule&#45;&gt;FeatureListModule -->
<g id="edge4" class="edge">
<title>FeatureListRoutingModule&#45;&gt;FeatureListModule</title>
<path fill="none" stroke="#000000" d="M108,-122.1061C108,-141.3391 108,-169 108,-169 108,-169 248.1109,-169 248.1109,-169"/>
<polygon fill="#000000" stroke="#000000" points="248.111,-172.5001 258.1109,-169 248.1109,-165.5001 248.111,-172.5001"/>
</g>
</g>
</svg>
