<?xml version="1.0" encoding="UTF-8" standalone="no"?>
<!DOCTYPE svg PUBLIC "-//W3C//DTD SVG 1.1//EN"
 "http://www.w3.org/Graphics/SVG/1.1/DTD/svg11.dtd">
<!-- Generated by graphviz version 2.40.1 (20161225.0304)
 -->
<!-- Title: dependencies Pages: 1 -->
<svg width="3426pt" height="211pt"
 viewBox="0.00 0.00 3426.00 211.00" xmlns="http://www.w3.org/2000/svg" xmlns:xlink="http://www.w3.org/1999/xlink">
<g id="graph0" class="graph" transform="scale(1 1) rotate(0) translate(4 207)">
<title>dependencies</title>
<polygon fill="#ffffff" stroke="transparent" points="-4,4 -4,-207 3422,-207 3422,4 -4,4"/>
<text text-anchor="start" x="1688.0091" y="-42.4" font-family="sans-serif" font-weight="bold" font-size="14.00" fill="#000000">Legend</text>
<polygon fill="#ffffb3" stroke="transparent" points="1475,-10 1475,-30 1495,-30 1495,-10 1475,-10"/>
<text text-anchor="start" x="1498.629" y="-15.4" font-family="sans-serif" font-size="14.00" fill="#000000"> &#160;Declarations</text>
<polygon fill="#8dd3c7" stroke="transparent" points="1588,-10 1588,-30 1608,-30 1608,-10 1588,-10"/>
<text text-anchor="start" x="1611.7251" y="-15.4" font-family="sans-serif" font-size="14.00" fill="#000000"> &#160;Module</text>
<polygon fill="#80b1d3" stroke="transparent" points="1674,-10 1674,-30 1694,-30 1694,-10 1674,-10"/>
<text text-anchor="start" x="1697.7812" y="-15.4" font-family="sans-serif" font-size="14.00" fill="#000000"> &#160;Bootstrap</text>
<polygon fill="#fdb462" stroke="transparent" points="1771,-10 1771,-30 1791,-30 1791,-10 1771,-10"/>
<text text-anchor="start" x="1794.6732" y="-15.4" font-family="sans-serif" font-size="14.00" fill="#000000"> &#160;Providers</text>
<polygon fill="#fb8072" stroke="transparent" points="1867,-10 1867,-30 1887,-30 1887,-10 1867,-10"/>
<text text-anchor="start" x="1890.7258" y="-15.4" font-family="sans-serif" font-size="14.00" fill="#000000"> &#160;Exports</text>
<g id="clust1" class="cluster">
<title>cluster_ExamplesModule</title>
<polygon fill="none" stroke="#000000" stroke-dasharray="1,5" points="8,-70 8,-195 3410,-195 3410,-70 8,-70"/>
</g>
<g id="clust2" class="cluster">
<title>cluster_ExamplesModule_declarations</title>
<polygon fill="none" stroke="#000000" points="802,-78 802,-130 3402,-130 3402,-78 802,-78"/>
</g>
<g id="clust18" class="cluster">
<title>cluster_ExamplesModule_imports</title>
<polygon fill="none" stroke="#000000" points="502,-78 502,-130 794,-130 794,-78 502,-78"/>
</g>
<g id="clust21" class="cluster">
<title>cluster_ExamplesModule_providers</title>
<polygon fill="none" stroke="#000000" points="16,-78 16,-130 494,-130 494,-78 16,-78"/>
</g>
<!-- AuthenticatedComponent -->
<g id="node1" class="node">
<title>AuthenticatedComponent</title>
<polygon fill="#ffffb3" stroke="#000000" points="3393.8599,-122 3234.1401,-122 3234.1401,-86 3393.8599,-86 3393.8599,-122"/>
<text text-anchor="middle" x="3314" y="-99.8" font-family="Times,serif" font-size="14.00" fill="#000000">AuthenticatedComponent</text>
</g>
<!-- ExamplesModule -->
<g id="node16" class="node">
<title>ExamplesModule</title>
<polygon fill="#8dd3c7" stroke="#000000" points="1740.2577,-187 1737.2577,-191 1716.2577,-191 1713.2577,-187 1625.7423,-187 1625.7423,-151 1740.2577,-151 1740.2577,-187"/>
<text text-anchor="middle" x="1683" y="-164.8" font-family="Times,serif" font-size="14.00" fill="#000000">ExamplesModule</text>
</g>
<!-- AuthenticatedComponent&#45;&gt;ExamplesModule -->
<g id="edge1" class="edge">
<title>AuthenticatedComponent&#45;&gt;ExamplesModule</title>
<path fill="none" stroke="#000000" d="M3314,-122.1532C3314,-145.7566 3314,-184 3314,-184 3314,-184 1750.5691,-184 1750.5691,-184"/>
<polygon fill="#000000" stroke="#000000" points="1750.5691,-180.5001 1740.5691,-184 1750.569,-187.5001 1750.5691,-180.5001"/>
</g>
<!-- ChildComponent -->
<g id="node2" class="node">
<title>ChildComponent</title>
<polygon fill="#ffffb3" stroke="#000000" points="3216.4511,-122 3103.5489,-122 3103.5489,-86 3216.4511,-86 3216.4511,-122"/>
<text text-anchor="middle" x="3160" y="-99.8" font-family="Times,serif" font-size="14.00" fill="#000000">ChildComponent</text>
</g>
<!-- ChildComponent&#45;&gt;ExamplesModule -->
<g id="edge2" class="edge">
<title>ChildComponent&#45;&gt;ExamplesModule</title>
<path fill="none" stroke="#000000" d="M3160,-122.0109C3160,-144.4852 3160,-180 3160,-180 3160,-180 1750.4468,-180 1750.4468,-180"/>
<polygon fill="#000000" stroke="#000000" points="1750.4469,-176.5001 1740.4468,-180 1750.4468,-183.5001 1750.4469,-176.5001"/>
</g>
<!-- ComplexParameterComponent -->
<g id="node3" class="node">
<title>ComplexParameterComponent</title>
<polygon fill="#ffffb3" stroke="#000000" points="3085.9086,-122 2896.0914,-122 2896.0914,-86 3085.9086,-86 3085.9086,-122"/>
<text text-anchor="middle" x="2991" y="-99.8" font-family="Times,serif" font-size="14.00" fill="#000000">ComplexParameterComponent</text>
</g>
<!-- ComplexParameterComponent&#45;&gt;ExamplesModule -->
<g id="edge3" class="edge">
<title>ComplexParameterComponent&#45;&gt;ExamplesModule</title>
<path fill="none" stroke="#000000" d="M2991,-122.0449C2991,-143.6623 2991,-177 2991,-177 2991,-177 1750.4668,-177 1750.4668,-177"/>
<polygon fill="#000000" stroke="#000000" points="1750.4669,-173.5001 1740.4668,-177 1750.4668,-180.5001 1750.4669,-173.5001"/>
</g>
<!-- ConfigurationStepComponent -->
<g id="node4" class="node">
<title>ConfigurationStepComponent</title>
<polygon fill="#ffffb3" stroke="#000000" points="2878.2646,-122 2693.7354,-122 2693.7354,-86 2878.2646,-86 2878.2646,-122"/>
<text text-anchor="middle" x="2786" y="-99.8" font-family="Times,serif" font-size="14.00" fill="#000000">ConfigurationStepComponent</text>
</g>
<!-- ConfigurationStepComponent&#45;&gt;ExamplesModule -->
<g id="edge4" class="edge">
<title>ConfigurationStepComponent&#45;&gt;ExamplesModule</title>
<path fill="none" stroke="#000000" d="M2786,-122.1289C2786,-142.5724 2786,-173 2786,-173 2786,-173 1750.3637,-173 1750.3637,-173"/>
<polygon fill="#000000" stroke="#000000" points="1750.3637,-169.5001 1740.3637,-173 1750.3636,-176.5001 1750.3637,-169.5001"/>
</g>
<!-- CreateConfigurationDialogComponent -->
<g id="node5" class="node">
<title>CreateConfigurationDialogComponent</title>
<polygon fill="#ffffb3" stroke="#000000" points="2675.0111,-122 2440.9889,-122 2440.9889,-86 2675.0111,-86 2675.0111,-122"/>
<text text-anchor="middle" x="2558" y="-99.8" font-family="Times,serif" font-size="14.00" fill="#000000">CreateConfigurationDialogComponent</text>
</g>
<!-- CreateConfigurationDialogComponent&#45;&gt;ExamplesModule -->
<g id="edge5" class="edge">
<title>CreateConfigurationDialogComponent&#45;&gt;ExamplesModule</title>
<path fill="none" stroke="#000000" d="M2558,-122.1061C2558,-141.3391 2558,-169 2558,-169 2558,-169 1750.4112,-169 1750.4112,-169"/>
<polygon fill="#000000" stroke="#000000" points="1750.4112,-165.5001 1740.4112,-169 1750.4112,-172.5001 1750.4112,-165.5001"/>
</g>
<!-- CrudComponent -->
<g id="node6" class="node">
<title>CrudComponent</title>
<polygon fill="#ffffb3" stroke="#000000" points="2422.8301,-122 2313.1699,-122 2313.1699,-86 2422.8301,-86 2422.8301,-122"/>
<text text-anchor="middle" x="2368" y="-99.8" font-family="Times,serif" font-size="14.00" fill="#000000">CrudComponent</text>
</g>
<!-- CrudComponent&#45;&gt;ExamplesModule -->
<g id="edge6" class="edge">
<title>CrudComponent&#45;&gt;ExamplesModule</title>
<path fill="none" stroke="#000000" d="M2368,-122.2667C2368,-140.5552 2368,-166 2368,-166 2368,-166 1750.5181,-166 1750.5181,-166"/>
<polygon fill="#000000" stroke="#000000" points="1750.5182,-162.5001 1740.5181,-166 1750.5181,-169.5001 1750.5182,-162.5001"/>
</g>
<!-- ExamplesComponent -->
<g id="node7" class="node">
<title>ExamplesComponent</title>
<polygon fill="#ffffb3" stroke="#000000" points="2295.0408,-122 2158.9592,-122 2158.9592,-86 2295.0408,-86 2295.0408,-122"/>
<text text-anchor="middle" x="2227" y="-99.8" font-family="Times,serif" font-size="14.00" fill="#000000">ExamplesComponent</text>
</g>
<!-- ExamplesComponent&#45;&gt;ExamplesModule -->
<g id="edge7" class="edge">
<title>ExamplesComponent&#45;&gt;ExamplesModule</title>
<path fill="none" stroke="#000000" d="M2227,-122.0336C2227,-139.0597 2227,-162 2227,-162 2227,-162 1750.4457,-162 1750.4457,-162"/>
<polygon fill="#000000" stroke="#000000" points="1750.4457,-158.5001 1740.4457,-162 1750.4457,-165.5001 1750.4457,-158.5001"/>
</g>
<!-- FormComponent -->
<g id="node8" class="node">
<title>FormComponent</title>
<polygon fill="#ffffb3" stroke="#000000" points="2140.6667,-122 2029.3333,-122 2029.3333,-86 2140.6667,-86 2140.6667,-122"/>
<text text-anchor="middle" x="2085" y="-99.8" font-family="Times,serif" font-size="14.00" fill="#000000">FormComponent</text>
</g>
<!-- FormComponent&#45;&gt;ExamplesModule -->
<g id="edge8" class="edge">
<title>FormComponent&#45;&gt;ExamplesModule</title>
<path fill="none" stroke="#000000" d="M2085,-122.0091C2085,-138.0494 2085,-159 2085,-159 2085,-159 1750.5968,-159 1750.5968,-159"/>
<polygon fill="#000000" stroke="#000000" points="1750.5968,-155.5001 1740.5968,-159 1750.5968,-162.5001 1750.5968,-155.5001"/>
</g>
<!-- FormToolbarComponent -->
<g id="node9" class="node">
<title>FormToolbarComponent</title>
<polygon fill="#ffffb3" stroke="#000000" points="2010.9846,-122 1855.0154,-122 1855.0154,-86 2010.9846,-86 2010.9846,-122"/>
<text text-anchor="middle" x="1933" y="-99.8" font-family="Times,serif" font-size="14.00" fill="#000000">FormToolbarComponent</text>
</g>
<!-- FormToolbarComponent&#45;&gt;ExamplesModule -->
<g id="edge9" class="edge">
<title>FormToolbarComponent&#45;&gt;ExamplesModule</title>
<path fill="none" stroke="#000000" d="M1933,-122.1243C1933,-136.7832 1933,-155 1933,-155 1933,-155 1750.355,-155 1750.355,-155"/>
<polygon fill="#000000" stroke="#000000" points="1750.3551,-151.5001 1740.355,-155 1750.355,-158.5001 1750.3551,-151.5001"/>
</g>
<!-- NotificationsComponent -->
<g id="node10" class="node">
<title>NotificationsComponent</title>
<polygon fill="#ffffb3" stroke="#000000" points="1837.427,-122 1682.573,-122 1682.573,-86 1837.427,-86 1837.427,-122"/>
<text text-anchor="middle" x="1760" y="-99.8" font-family="Times,serif" font-size="14.00" fill="#000000">NotificationsComponent</text>
</g>
<!-- NotificationsComponent&#45;&gt;ExamplesModule -->
<g id="edge10" class="edge">
<title>NotificationsComponent&#45;&gt;ExamplesModule</title>
<path fill="none" stroke="#000000" d="M1711.5828,-122.1061C1711.5828,-122.1061 1711.5828,-140.991 1711.5828,-140.991"/>
<polygon fill="#000000" stroke="#000000" points="1708.0828,-140.9909 1711.5828,-150.991 1715.0828,-140.991 1708.0828,-140.9909"/>
</g>
<!-- ParentComponent -->
<g id="node11" class="node">
<title>ParentComponent</title>
<polygon fill="#ffffb3" stroke="#000000" points="1664.5954,-122 1547.4046,-122 1547.4046,-86 1664.5954,-86 1664.5954,-122"/>
<text text-anchor="middle" x="1606" y="-99.8" font-family="Times,serif" font-size="14.00" fill="#000000">ParentComponent</text>
</g>
<!-- ParentComponent&#45;&gt;ExamplesModule -->
<g id="edge11" class="edge">
<title>ParentComponent&#45;&gt;ExamplesModule</title>
<path fill="none" stroke="#000000" d="M1645.0845,-122.1061C1645.0845,-122.1061 1645.0845,-140.991 1645.0845,-140.991"/>
<polygon fill="#000000" stroke="#000000" points="1641.5846,-140.9909 1645.0845,-150.991 1648.5846,-140.991 1641.5846,-140.9909"/>
</g>
<!-- SimpleParameterComponent -->
<g id="node12" class="node">
<title>SimpleParameterComponent</title>
<polygon fill="#ffffb3" stroke="#000000" points="1529.745,-122 1352.255,-122 1352.255,-86 1529.745,-86 1529.745,-122"/>
<text text-anchor="middle" x="1441" y="-99.8" font-family="Times,serif" font-size="14.00" fill="#000000">SimpleParameterComponent</text>
</g>
<!-- SimpleParameterComponent&#45;&gt;ExamplesModule -->
<g id="edge12" class="edge">
<title>SimpleParameterComponent&#45;&gt;ExamplesModule</title>
<path fill="none" stroke="#000000" d="M1441,-122.1243C1441,-136.7832 1441,-155 1441,-155 1441,-155 1615.6494,-155 1615.6494,-155"/>
<polygon fill="#000000" stroke="#000000" points="1615.6494,-158.5001 1625.6494,-155 1615.6493,-151.5001 1615.6494,-158.5001"/>
</g>
<!-- StockMarketContainerComponent -->
<g id="node13" class="node">
<title>StockMarketContainerComponent</title>
<polygon fill="#ffffb3" stroke="#000000" points="1334.3529,-122 1125.6471,-122 1125.6471,-86 1334.3529,-86 1334.3529,-122"/>
<text text-anchor="middle" x="1230" y="-99.8" font-family="Times,serif" font-size="14.00" fill="#000000">StockMarketContainerComponent</text>
</g>
<!-- StockMarketContainerComponent&#45;&gt;ExamplesModule -->
<g id="edge13" class="edge">
<title>StockMarketContainerComponent&#45;&gt;ExamplesModule</title>
<path fill="none" stroke="#000000" d="M1230,-122.0091C1230,-138.0494 1230,-159 1230,-159 1230,-159 1615.6272,-159 1615.6272,-159"/>
<polygon fill="#000000" stroke="#000000" points="1615.6273,-162.5001 1625.6272,-159 1615.6272,-155.5001 1615.6273,-162.5001"/>
</g>
<!-- TodosContainerComponent -->
<g id="node14" class="node">
<title>TodosContainerComponent</title>
<polygon fill="#ffffb3" stroke="#000000" points="1107.5378,-122 936.4622,-122 936.4622,-86 1107.5378,-86 1107.5378,-122"/>
<text text-anchor="middle" x="1022" y="-99.8" font-family="Times,serif" font-size="14.00" fill="#000000">TodosContainerComponent</text>
</g>
<!-- TodosContainerComponent&#45;&gt;ExamplesModule -->
<g id="edge14" class="edge">
<title>TodosContainerComponent&#45;&gt;ExamplesModule</title>
<path fill="none" stroke="#000000" d="M1022,-122.0336C1022,-139.0597 1022,-162 1022,-162 1022,-162 1615.4969,-162 1615.4969,-162"/>
<polygon fill="#000000" stroke="#000000" points="1615.4969,-165.5001 1625.4969,-162 1615.4969,-158.5001 1615.4969,-165.5001"/>
</g>
<!-- UserComponent -->
<g id="node15" class="node">
<title>UserComponent</title>
<polygon fill="#ffffb3" stroke="#000000" points="917.7591,-122 810.2409,-122 810.2409,-86 917.7591,-86 917.7591,-122"/>
<text text-anchor="middle" x="864" y="-99.8" font-family="Times,serif" font-size="14.00" fill="#000000">UserComponent</text>
</g>
<!-- UserComponent&#45;&gt;ExamplesModule -->
<g id="edge15" class="edge">
<title>UserComponent&#45;&gt;ExamplesModule</title>
<path fill="none" stroke="#000000" d="M864,-122.2667C864,-140.5552 864,-166 864,-166 864,-166 1615.735,-166 1615.735,-166"/>
<polygon fill="#000000" stroke="#000000" points="1615.7351,-169.5001 1625.735,-166 1615.735,-162.5001 1615.7351,-169.5001"/>
</g>
<!-- ExamplesRoutingModule -->
<g id="node17" class="node">
<title>ExamplesRoutingModule</title>
<polygon fill="#8dd3c7" stroke="#000000" points="785.8752,-122 782.8752,-126 761.8752,-126 758.8752,-122 626.1248,-122 626.1248,-86 785.8752,-86 785.8752,-122"/>
<text text-anchor="middle" x="706" y="-99.8" font-family="Times,serif" font-size="14.00" fill="#000000">ExamplesRoutingModule</text>
</g>
<!-- ExamplesRoutingModule&#45;&gt;ExamplesModule -->
<g id="edge16" class="edge">
<title>ExamplesRoutingModule&#45;&gt;ExamplesModule</title>
<path fill="none" stroke="#000000" d="M706,-122.1061C706,-141.3391 706,-169 706,-169 706,-169 1615.5317,-169 1615.5317,-169"/>
<polygon fill="#000000" stroke="#000000" points="1615.5317,-172.5001 1625.5317,-169 1615.5317,-165.5001 1615.5317,-172.5001"/>
</g>
<!-- SharedModule -->
<g id="node18" class="node">
<title>SharedModule</title>
<polygon fill="#8dd3c7" stroke="#000000" points="608.4231,-122 605.4231,-126 584.4231,-126 581.4231,-122 509.5769,-122 509.5769,-86 608.4231,-86 608.4231,-122"/>
<text text-anchor="middle" x="559" y="-99.8" font-family="Times,serif" font-size="14.00" fill="#000000">SharedModule</text>
</g>
<!-- SharedModule&#45;&gt;ExamplesModule -->
<g id="edge17" class="edge">
<title>SharedModule&#45;&gt;ExamplesModule</title>
<path fill="none" stroke="#000000" d="M559,-122.1289C559,-142.5724 559,-173 559,-173 559,-173 1615.7154,-173 1615.7154,-173"/>
<polygon fill="#000000" stroke="#000000" points="1615.7154,-176.5001 1625.7154,-173 1615.7154,-169.5001 1615.7154,-176.5001"/>
</g>
<!-- FormsService -->
<g id="node19" class="node">
<title>FormsService</title>
<ellipse fill="#fdb462" stroke="#000000" cx="421" cy="-104" rx="64.8428" ry="18"/>
<text text-anchor="middle" x="421" y="-99.8" font-family="Times,serif" font-size="14.00" fill="#000000">FormsService</text>
</g>
<!-- FormsService&#45;&gt;ExamplesModule -->
<g id="edge18" class="edge">
<title>FormsService&#45;&gt;ExamplesModule</title>
<path fill="none" stroke="#000000" d="M421,-122.0449C421,-143.6623 421,-177 421,-177 421,-177 1615.4952,-177 1615.4952,-177"/>
<polygon fill="#000000" stroke="#000000" points="1615.4952,-180.5001 1625.4952,-177 1615.4951,-173.5001 1615.4952,-180.5001"/>
</g>
<!-- StockMarketService -->
<g id="node20" class="node">
<title>StockMarketService</title>
<ellipse fill="#fdb462" stroke="#000000" cx="248" cy="-104" rx="89.7441" ry="18"/>
<text text-anchor="middle" x="248" y="-99.8" font-family="Times,serif" font-size="14.00" fill="#000000">StockMarketService</text>
</g>
<!-- StockMarketService&#45;&gt;ExamplesModule -->
<g id="edge19" class="edge">
<title>StockMarketService&#45;&gt;ExamplesModule</title>
<path fill="none" stroke="#000000" d="M248,-122.0109C248,-144.4852 248,-180 248,-180 248,-180 1615.4157,-180 1615.4157,-180"/>
<polygon fill="#000000" stroke="#000000" points="1615.4157,-183.5001 1625.4157,-180 1615.4156,-176.5001 1615.4157,-183.5001"/>
</g>
<!-- UserService -->
<g id="node21" class="node">
<title>UserService</title>
<ellipse fill="#fdb462" stroke="#000000" cx="82" cy="-104" rx="58.4415" ry="18"/>
<text text-anchor="middle" x="82" y="-99.8" font-family="Times,serif" font-size="14.00" fill="#000000">UserService</text>
</g>
<!-- UserService&#45;&gt;ExamplesModule -->
<g id="edge20" class="edge">
<title>UserService&#45;&gt;ExamplesModule</title>
<path fill="none" stroke="#000000" d="M82,-122.1532C82,-145.7566 82,-184 82,-184 82,-184 1615.5475,-184 1615.5475,-184"/>
<polygon fill="#000000" stroke="#000000" points="1615.5476,-187.5001 1625.5475,-184 1615.5475,-180.5001 1615.5476,-187.5001"/>
</g>
</g>
</svg>
