<?xml version="1.0" encoding="UTF-8" standalone="no"?>
<!DOCTYPE svg PUBLIC "-//W3C//DTD SVG 1.1//EN"
 "http://www.w3.org/Graphics/SVG/1.1/DTD/svg11.dtd">
<!-- Generated by graphviz version 2.40.1 (20161225.0304)
 -->
<!-- Title: dependencies Pages: 1 -->
<svg width="3625pt" height="211pt"
 viewBox="0.00 0.00 3625.00 211.00" xmlns="http://www.w3.org/2000/svg" xmlns:xlink="http://www.w3.org/1999/xlink">
<g id="graph0" class="graph" transform="scale(1 1) rotate(0) translate(4 207)">
<title>dependencies</title>
<polygon fill="#ffffff" stroke="transparent" points="-4,4 -4,-207 3621,-207 3621,4 -4,4"/>
<text text-anchor="start" x="1787.5091" y="-42.4" font-family="sans-serif" font-weight="bold" font-size="14.00" fill="#000000">Legend</text>
<polygon fill="#ffffb3" stroke="transparent" points="1574.5,-10 1574.5,-30 1594.5,-30 1594.5,-10 1574.5,-10"/>
<text text-anchor="start" x="1598.129" y="-15.4" font-family="sans-serif" font-size="14.00" fill="#000000"> &#160;Declarations</text>
<polygon fill="#8dd3c7" stroke="transparent" points="1687.5,-10 1687.5,-30 1707.5,-30 1707.5,-10 1687.5,-10"/>
<text text-anchor="start" x="1711.2251" y="-15.4" font-family="sans-serif" font-size="14.00" fill="#000000"> &#160;Module</text>
<polygon fill="#80b1d3" stroke="transparent" points="1773.5,-10 1773.5,-30 1793.5,-30 1793.5,-10 1773.5,-10"/>
<text text-anchor="start" x="1797.2812" y="-15.4" font-family="sans-serif" font-size="14.00" fill="#000000"> &#160;Bootstrap</text>
<polygon fill="#fdb462" stroke="transparent" points="1870.5,-10 1870.5,-30 1890.5,-30 1890.5,-10 1870.5,-10"/>
<text text-anchor="start" x="1894.1732" y="-15.4" font-family="sans-serif" font-size="14.00" fill="#000000"> &#160;Providers</text>
<polygon fill="#fb8072" stroke="transparent" points="1966.5,-10 1966.5,-30 1986.5,-30 1986.5,-10 1966.5,-10"/>
<text text-anchor="start" x="1990.2258" y="-15.4" font-family="sans-serif" font-size="14.00" fill="#000000"> &#160;Exports</text>
<g id="clust1" class="cluster">
<title>cluster_ExamplesModule</title>
<polygon fill="none" stroke="#000000" stroke-dasharray="1,5" points="8,-70 8,-195 3609,-195 3609,-70 8,-70"/>
</g>
<g id="clust2" class="cluster">
<title>cluster_ExamplesModule_declarations</title>
<polygon fill="none" stroke="#000000" points="1428,-78 1428,-130 3601,-130 3601,-78 1428,-78"/>
</g>
<g id="clust16" class="cluster">
<title>cluster_ExamplesModule_imports</title>
<polygon fill="none" stroke="#000000" points="502,-78 502,-130 1420,-130 1420,-78 502,-78"/>
</g>
<g id="clust19" class="cluster">
<title>cluster_ExamplesModule_providers</title>
<polygon fill="none" stroke="#000000" points="16,-78 16,-130 494,-130 494,-78 16,-78"/>
</g>
<!-- ExamplesComponent -->
<g id="node1" class="node">
<title>ExamplesComponent</title>
<polygon fill="#ffffb3" stroke="#000000" points="3593.0408,-122 3456.9592,-122 3456.9592,-86 3593.0408,-86 3593.0408,-122"/>
<text text-anchor="middle" x="3525" y="-99.8" font-family="Times,serif" font-size="14.00" fill="#000000">ExamplesComponent</text>
</g>
<!-- ExamplesModule -->
<g id="node14" class="node">
<title>ExamplesModule</title>
<polygon fill="#8dd3c7" stroke="#000000" points="1989.2577,-187 1986.2577,-191 1965.2577,-191 1962.2577,-187 1874.7423,-187 1874.7423,-151 1989.2577,-151 1989.2577,-187"/>
<text text-anchor="middle" x="1932" y="-164.8" font-family="Times,serif" font-size="14.00" fill="#000000">ExamplesModule</text>
</g>
<!-- ExamplesComponent&#45;&gt;ExamplesModule -->
<g id="edge1" class="edge">
<title>ExamplesComponent&#45;&gt;ExamplesModule</title>
<path fill="none" stroke="#000000" d="M3525,-122.1532C3525,-145.7566 3525,-184 3525,-184 3525,-184 1999.6368,-184 1999.6368,-184"/>
<polygon fill="#000000" stroke="#000000" points="1999.6369,-180.5001 1989.6368,-184 1999.6368,-187.5001 1999.6369,-180.5001"/>
</g>
<!-- TodosContainerComponent -->
<g id="node2" class="node">
<title>TodosContainerComponent</title>
<polygon fill="#ffffb3" stroke="#000000" points="3438.5378,-122 3267.4622,-122 3267.4622,-86 3438.5378,-86 3438.5378,-122"/>
<text text-anchor="middle" x="3353" y="-99.8" font-family="Times,serif" font-size="14.00" fill="#000000">TodosContainerComponent</text>
</g>
<!-- TodosContainerComponent&#45;&gt;ExamplesModule -->
<g id="edge2" class="edge">
<title>TodosContainerComponent&#45;&gt;ExamplesModule</title>
<path fill="none" stroke="#000000" d="M3353,-122.2479C3353,-145.0179 3353,-181 3353,-181 3353,-181 1999.4648,-181 1999.4648,-181"/>
<polygon fill="#000000" stroke="#000000" points="1999.4649,-177.5001 1989.4648,-181 1999.4648,-184.5001 1999.4649,-177.5001"/>
</g>
<!-- StockMarketContainerComponent -->
<g id="node3" class="node">
<title>StockMarketContainerComponent</title>
<polygon fill="#ffffb3" stroke="#000000" points="3249.3529,-122 3040.6471,-122 3040.6471,-86 3249.3529,-86 3249.3529,-122"/>
<text text-anchor="middle" x="3145" y="-99.8" font-family="Times,serif" font-size="14.00" fill="#000000">StockMarketContainerComponent</text>
</g>
<!-- StockMarketContainerComponent&#45;&gt;ExamplesModule -->
<g id="edge3" class="edge">
<title>StockMarketContainerComponent&#45;&gt;ExamplesModule</title>
<path fill="none" stroke="#000000" d="M3145,-122.2921C3145,-144.2057 3145,-178 3145,-178 3145,-178 1999.2834,-178 1999.2834,-178"/>
<polygon fill="#000000" stroke="#000000" points="1999.2834,-174.5001 1989.2834,-178 1999.2833,-181.5001 1999.2834,-174.5001"/>
</g>
<!-- ParentComponent -->
<g id="node4" class="node">
<title>ParentComponent</title>
<polygon fill="#ffffb3" stroke="#000000" points="3022.5954,-122 2905.4046,-122 2905.4046,-86 3022.5954,-86 3022.5954,-122"/>
<text text-anchor="middle" x="2964" y="-99.8" font-family="Times,serif" font-size="14.00" fill="#000000">ParentComponent</text>
</g>
<!-- ParentComponent&#45;&gt;ExamplesModule -->
<g id="edge4" class="edge">
<title>ParentComponent&#45;&gt;ExamplesModule</title>
<path fill="none" stroke="#000000" d="M2964,-122.0267C2964,-142.7672 2964,-174 2964,-174 2964,-174 1999.3249,-174 1999.3249,-174"/>
<polygon fill="#000000" stroke="#000000" points="1999.325,-170.5001 1989.3249,-174 1999.3249,-177.5001 1999.325,-170.5001"/>
</g>
<!-- ChildComponent -->
<g id="node5" class="node">
<title>ChildComponent</title>
<polygon fill="#ffffb3" stroke="#000000" points="2887.4511,-122 2774.5489,-122 2774.5489,-86 2887.4511,-86 2887.4511,-122"/>
<text text-anchor="middle" x="2831" y="-99.8" font-family="Times,serif" font-size="14.00" fill="#000000">ChildComponent</text>
</g>
<!-- ChildComponent&#45;&gt;ExamplesModule -->
<g id="edge5" class="edge">
<title>ChildComponent&#45;&gt;ExamplesModule</title>
<path fill="none" stroke="#000000" d="M2831,-122.308C2831,-142.1455 2831,-171 2831,-171 2831,-171 1999.2608,-171 1999.2608,-171"/>
<polygon fill="#000000" stroke="#000000" points="1999.2609,-167.5001 1989.2608,-171 1999.2608,-174.5001 1999.2609,-167.5001"/>
</g>
<!-- AuthenticatedComponent -->
<g id="node6" class="node">
<title>AuthenticatedComponent</title>
<polygon fill="#ffffb3" stroke="#000000" points="2756.8599,-122 2597.1401,-122 2597.1401,-86 2756.8599,-86 2756.8599,-122"/>
<text text-anchor="middle" x="2677" y="-99.8" font-family="Times,serif" font-size="14.00" fill="#000000">AuthenticatedComponent</text>
</g>
<!-- AuthenticatedComponent&#45;&gt;ExamplesModule -->
<g id="edge6" class="edge">
<title>AuthenticatedComponent&#45;&gt;ExamplesModule</title>
<path fill="none" stroke="#000000" d="M2677,-122.1686C2677,-141.0898 2677,-168 2677,-168 2677,-168 1999.5301,-168 1999.5301,-168"/>
<polygon fill="#000000" stroke="#000000" points="1999.5301,-164.5001 1989.5301,-168 1999.53,-171.5001 1999.5301,-164.5001"/>
</g>
<!-- CrudComponent -->
<g id="node7" class="node">
<title>CrudComponent</title>
<polygon fill="#ffffb3" stroke="#000000" points="2578.8301,-122 2469.1699,-122 2469.1699,-86 2578.8301,-86 2578.8301,-122"/>
<text text-anchor="middle" x="2524" y="-99.8" font-family="Times,serif" font-size="14.00" fill="#000000">CrudComponent</text>
</g>
<!-- CrudComponent&#45;&gt;ExamplesModule -->
<g id="edge7" class="edge">
<title>CrudComponent&#45;&gt;ExamplesModule</title>
<path fill="none" stroke="#000000" d="M2524,-122.302C2524,-140.2699 2524,-165 2524,-165 2524,-165 1999.3014,-165 1999.3014,-165"/>
<polygon fill="#000000" stroke="#000000" points="1999.3014,-161.5001 1989.3014,-165 1999.3013,-168.5001 1999.3014,-161.5001"/>
</g>
<!-- FormComponent -->
<g id="node8" class="node">
<title>FormComponent</title>
<polygon fill="#ffffb3" stroke="#000000" points="2451.6667,-122 2340.3333,-122 2340.3333,-86 2451.6667,-86 2451.6667,-122"/>
<text text-anchor="middle" x="2396" y="-99.8" font-family="Times,serif" font-size="14.00" fill="#000000">FormComponent</text>
</g>
<!-- FormComponent&#45;&gt;ExamplesModule -->
<g id="edge8" class="edge">
<title>FormComponent&#45;&gt;ExamplesModule</title>
<path fill="none" stroke="#000000" d="M2396,-122.0352C2396,-138.7344 2396,-161 2396,-161 2396,-161 1999.3609,-161 1999.3609,-161"/>
<polygon fill="#000000" stroke="#000000" points="1999.3609,-157.5001 1989.3609,-161 1999.3608,-164.5001 1999.3609,-157.5001"/>
</g>
<!-- NotificationsComponent -->
<g id="node9" class="node">
<title>NotificationsComponent</title>
<polygon fill="#ffffb3" stroke="#000000" points="2322.427,-122 2167.573,-122 2167.573,-86 2322.427,-86 2322.427,-122"/>
<text text-anchor="middle" x="2245" y="-99.8" font-family="Times,serif" font-size="14.00" fill="#000000">NotificationsComponent</text>
</g>
<!-- NotificationsComponent&#45;&gt;ExamplesModule -->
<g id="edge9" class="edge">
<title>NotificationsComponent&#45;&gt;ExamplesModule</title>
<path fill="none" stroke="#000000" d="M2245,-122.2819C2245,-137.9478 2245,-158 2245,-158 2245,-158 1999.409,-158 1999.409,-158"/>
<polygon fill="#000000" stroke="#000000" points="1999.4091,-154.5001 1989.409,-158 1999.409,-161.5001 1999.4091,-154.5001"/>
</g>
<!-- UserComponent -->
<g id="node10" class="node">
<title>UserComponent</title>
<polygon fill="#ffffb3" stroke="#000000" points="2149.7591,-122 2042.2409,-122 2042.2409,-86 2149.7591,-86 2149.7591,-122"/>
<text text-anchor="middle" x="2096" y="-99.8" font-family="Times,serif" font-size="14.00" fill="#000000">UserComponent</text>
</g>
<!-- UserComponent&#45;&gt;ExamplesModule -->
<g id="edge10" class="edge">
<title>UserComponent&#45;&gt;ExamplesModule</title>
<path fill="none" stroke="#000000" d="M2096,-122.1243C2096,-136.7832 2096,-155 2096,-155 2096,-155 1999.3592,-155 1999.3592,-155"/>
<polygon fill="#000000" stroke="#000000" points="1999.3593,-151.5001 1989.3592,-155 1999.3592,-158.5001 1999.3593,-151.5001"/>
</g>
<!-- ConfigurationStepComponent -->
<g id="node11" class="node">
<title>ConfigurationStepComponent</title>
<polygon fill="#ffffb3" stroke="#000000" points="2024.2646,-122 1839.7354,-122 1839.7354,-86 2024.2646,-86 2024.2646,-122"/>
<text text-anchor="middle" x="1932" y="-99.8" font-family="Times,serif" font-size="14.00" fill="#000000">ConfigurationStepComponent</text>
</g>
<!-- ConfigurationStepComponent&#45;&gt;ExamplesModule -->
<g id="edge11" class="edge">
<title>ConfigurationStepComponent&#45;&gt;ExamplesModule</title>
<path fill="none" stroke="#000000" d="M1932,-122.1061C1932,-122.1061 1932,-140.991 1932,-140.991"/>
<polygon fill="#000000" stroke="#000000" points="1928.5001,-140.9909 1932,-150.991 1935.5001,-140.991 1928.5001,-140.9909"/>
</g>
<!-- ComplexParameterComponent -->
<g id="node12" class="node">
<title>ComplexParameterComponent</title>
<polygon fill="#ffffb3" stroke="#000000" points="1821.9086,-122 1632.0914,-122 1632.0914,-86 1821.9086,-86 1821.9086,-122"/>
<text text-anchor="middle" x="1727" y="-99.8" font-family="Times,serif" font-size="14.00" fill="#000000">ComplexParameterComponent</text>
</g>
<!-- ComplexParameterComponent&#45;&gt;ExamplesModule -->
<g id="edge12" class="edge">
<title>ComplexParameterComponent&#45;&gt;ExamplesModule</title>
<path fill="none" stroke="#000000" d="M1727,-122.1243C1727,-136.7832 1727,-155 1727,-155 1727,-155 1864.6235,-155 1864.6235,-155"/>
<polygon fill="#000000" stroke="#000000" points="1864.6235,-158.5001 1874.6235,-155 1864.6234,-151.5001 1864.6235,-158.5001"/>
</g>
<!-- SimpleParameterComponent -->
<g id="node13" class="node">
<title>SimpleParameterComponent</title>
<polygon fill="#ffffb3" stroke="#000000" points="1613.745,-122 1436.255,-122 1436.255,-86 1613.745,-86 1613.745,-122"/>
<text text-anchor="middle" x="1525" y="-99.8" font-family="Times,serif" font-size="14.00" fill="#000000">SimpleParameterComponent</text>
</g>
<!-- SimpleParameterComponent&#45;&gt;ExamplesModule -->
<g id="edge13" class="edge">
<title>SimpleParameterComponent&#45;&gt;ExamplesModule</title>
<path fill="none" stroke="#000000" d="M1525,-122.2819C1525,-137.9478 1525,-158 1525,-158 1525,-158 1864.5501,-158 1864.5501,-158"/>
<polygon fill="#000000" stroke="#000000" points="1864.5501,-161.5001 1874.5501,-158 1864.55,-154.5001 1864.5501,-161.5001"/>
</g>
<!-- SharedModule -->
<g id="node15" class="node">
<title>SharedModule</title>
<polygon fill="#8dd3c7" stroke="#000000" points="1412.4231,-122 1409.4231,-126 1388.4231,-126 1385.4231,-122 1313.5769,-122 1313.5769,-86 1412.4231,-86 1412.4231,-122"/>
<text text-anchor="middle" x="1363" y="-99.8" font-family="Times,serif" font-size="14.00" fill="#000000">SharedModule</text>
</g>
<!-- SharedModule&#45;&gt;ExamplesModule -->
<g id="edge14" class="edge">
<title>SharedModule&#45;&gt;ExamplesModule</title>
<path fill="none" stroke="#000000" d="M1363,-122.0352C1363,-138.7344 1363,-161 1363,-161 1363,-161 1864.5737,-161 1864.5737,-161"/>
<polygon fill="#000000" stroke="#000000" points="1864.5737,-164.5001 1874.5737,-161 1864.5736,-157.5001 1864.5737,-164.5001"/>
</g>
<!-- ExamplesRoutingModule -->
<g id="node16" class="node">
<title>ExamplesRoutingModule</title>
<polygon fill="#8dd3c7" stroke="#000000" points="1295.8752,-122 1292.8752,-126 1271.8752,-126 1268.8752,-122 1136.1248,-122 1136.1248,-86 1295.8752,-86 1295.8752,-122"/>
<text text-anchor="middle" x="1216" y="-99.8" font-family="Times,serif" font-size="14.00" fill="#000000">ExamplesRoutingModule</text>
</g>
<!-- ExamplesRoutingModule&#45;&gt;ExamplesModule -->
<g id="edge15" class="edge">
<title>ExamplesRoutingModule&#45;&gt;ExamplesModule</title>
<path fill="none" stroke="#000000" d="M1216,-122.302C1216,-140.2699 1216,-165 1216,-165 1216,-165 1864.617,-165 1864.617,-165"/>
<polygon fill="#000000" stroke="#000000" points="1864.6171,-168.5001 1874.617,-165 1864.617,-161.5001 1864.6171,-168.5001"/>
</g>
<!-- StoreModule.forFeature(args) -->
<g id="node17" class="node">
<title>StoreModule.forFeature(args)</title>
<polygon fill="#8dd3c7" stroke="#000000" points="1117.5386,-122 1114.5386,-126 1093.5386,-126 1090.5386,-122 934.4614,-122 934.4614,-86 1117.5386,-86 1117.5386,-122"/>
<text text-anchor="middle" x="1026" y="-99.8" font-family="Times,serif" font-size="14.00" fill="#000000">StoreModule.forFeature(args)</text>
</g>
<!-- StoreModule.forFeature(args)&#45;&gt;ExamplesModule -->
<g id="edge16" class="edge">
<title>StoreModule.forFeature(args)&#45;&gt;ExamplesModule</title>
<path fill="none" stroke="#000000" d="M1026,-122.1686C1026,-141.0898 1026,-168 1026,-168 1026,-168 1864.6383,-168 1864.6383,-168"/>
<polygon fill="#000000" stroke="#000000" points="1864.6384,-171.5001 1874.6383,-168 1864.6383,-164.5001 1864.6384,-171.5001"/>
</g>
<!-- TranslateModule.forChild(args) -->
<g id="node18" class="node">
<title>TranslateModule.forChild(args)</title>
<polygon fill="#8dd3c7" stroke="#000000" points="916.7127,-122 913.7127,-126 892.7127,-126 889.7127,-122 721.2873,-122 721.2873,-86 916.7127,-86 916.7127,-122"/>
<text text-anchor="middle" x="819" y="-99.8" font-family="Times,serif" font-size="14.00" fill="#000000">TranslateModule.forChild(args)</text>
</g>
<!-- TranslateModule.forChild(args)&#45;&gt;ExamplesModule -->
<g id="edge17" class="edge">
<title>TranslateModule.forChild(args)&#45;&gt;ExamplesModule</title>
<path fill="none" stroke="#000000" d="M819,-122.308C819,-142.1455 819,-171 819,-171 819,-171 1864.504,-171 1864.504,-171"/>
<polygon fill="#000000" stroke="#000000" points="1864.504,-174.5001 1874.504,-171 1864.504,-167.5001 1864.504,-174.5001"/>
</g>
<!-- EffectsModule.forFeature(args) -->
<g id="node19" class="node">
<title>EffectsModule.forFeature(args)</title>
<polygon fill="#8dd3c7" stroke="#000000" points="703.6282,-122 700.6282,-126 679.6282,-126 676.6282,-122 510.3718,-122 510.3718,-86 703.6282,-86 703.6282,-122"/>
<text text-anchor="middle" x="607" y="-99.8" font-family="Times,serif" font-size="14.00" fill="#000000">EffectsModule.forFeature(args)</text>
</g>
<!-- EffectsModule.forFeature(args)&#45;&gt;ExamplesModule -->
<g id="edge18" class="edge">
<title>EffectsModule.forFeature(args)&#45;&gt;ExamplesModule</title>
<path fill="none" stroke="#000000" d="M607,-122.0267C607,-142.7672 607,-174 607,-174 607,-174 1864.6411,-174 1864.6411,-174"/>
<polygon fill="#000000" stroke="#000000" points="1864.6412,-177.5001 1874.6411,-174 1864.6411,-170.5001 1864.6412,-177.5001"/>
</g>
<!-- StockMarketService -->
<g id="node20" class="node">
<title>StockMarketService</title>
<ellipse fill="#fdb462" stroke="#000000" cx="396" cy="-104" rx="89.7441" ry="18"/>
<text text-anchor="middle" x="396" y="-99.8" font-family="Times,serif" font-size="14.00" fill="#000000">StockMarketService</text>
</g>
<!-- StockMarketService&#45;&gt;ExamplesModule -->
<g id="edge19" class="edge">
<title>StockMarketService&#45;&gt;ExamplesModule</title>
<path fill="none" stroke="#000000" d="M396,-122.2921C396,-144.2057 396,-178 396,-178 396,-178 1864.5903,-178 1864.5903,-178"/>
<polygon fill="#000000" stroke="#000000" points="1864.5904,-181.5001 1874.5903,-178 1864.5903,-174.5001 1864.5904,-181.5001"/>
</g>
<!-- UserService -->
<g id="node21" class="node">
<title>UserService</title>
<ellipse fill="#fdb462" stroke="#000000" cx="230" cy="-104" rx="58.4415" ry="18"/>
<text text-anchor="middle" x="230" y="-99.8" font-family="Times,serif" font-size="14.00" fill="#000000">UserService</text>
</g>
<!-- UserService&#45;&gt;ExamplesModule -->
<g id="edge20" class="edge">
<title>UserService&#45;&gt;ExamplesModule</title>
<path fill="none" stroke="#000000" d="M230,-122.2479C230,-145.0179 230,-181 230,-181 230,-181 1864.3962,-181 1864.3962,-181"/>
<polygon fill="#000000" stroke="#000000" points="1864.3962,-184.5001 1874.3962,-181 1864.3961,-177.5001 1864.3962,-184.5001"/>
</g>
<!-- FormsService -->
<g id="node22" class="node">
<title>FormsService</title>
<ellipse fill="#fdb462" stroke="#000000" cx="89" cy="-104" rx="64.8428" ry="18"/>
<text text-anchor="middle" x="89" y="-99.8" font-family="Times,serif" font-size="14.00" fill="#000000">FormsService</text>
</g>
<!-- FormsService&#45;&gt;ExamplesModule -->
<g id="edge21" class="edge">
<title>FormsService&#45;&gt;ExamplesModule</title>
<path fill="none" stroke="#000000" d="M89,-122.1532C89,-145.7566 89,-184 89,-184 89,-184 1864.5667,-184 1864.5667,-184"/>
<polygon fill="#000000" stroke="#000000" points="1864.5668,-187.5001 1874.5667,-184 1864.5667,-180.5001 1864.5668,-187.5001"/>
</g>
</g>
</svg>
