<?xml version="1.0" encoding="UTF-8" standalone="no"?>
<!DOCTYPE svg PUBLIC "-//W3C//DTD SVG 1.1//EN"
 "http://www.w3.org/Graphics/SVG/1.1/DTD/svg11.dtd">
<!-- Generated by graphviz version 2.40.1 (20161225.0304)
 -->
<!-- Title: dependencies Pages: 1 -->
<svg width="533pt" height="284pt"
 viewBox="0.00 0.00 533.00 284.00" xmlns="http://www.w3.org/2000/svg" xmlns:xlink="http://www.w3.org/1999/xlink">
<g id="graph0" class="graph" transform="scale(1 1) rotate(0) translate(4 280)">
<title>dependencies</title>
<polygon fill="#ffffff" stroke="transparent" points="-4,4 -4,-280 529,-280 529,4 -4,4"/>
<text text-anchor="start" x="241.5091" y="-42.4" font-family="sans-serif" font-weight="bold" font-size="14.00" fill="#000000">Legend</text>
<polygon fill="#ffffb3" stroke="transparent" points="28.5,-10 28.5,-30 48.5,-30 48.5,-10 28.5,-10"/>
<text text-anchor="start" x="52.129" y="-15.4" font-family="sans-serif" font-size="14.00" fill="#000000"> &#160;Declarations</text>
<polygon fill="#8dd3c7" stroke="transparent" points="141.5,-10 141.5,-30 161.5,-30 161.5,-10 141.5,-10"/>
<text text-anchor="start" x="165.2251" y="-15.4" font-family="sans-serif" font-size="14.00" fill="#000000"> &#160;Module</text>
<polygon fill="#80b1d3" stroke="transparent" points="227.5,-10 227.5,-30 247.5,-30 247.5,-10 227.5,-10"/>
<text text-anchor="start" x="251.2812" y="-15.4" font-family="sans-serif" font-size="14.00" fill="#000000"> &#160;Bootstrap</text>
<polygon fill="#fdb462" stroke="transparent" points="324.5,-10 324.5,-30 344.5,-30 344.5,-10 324.5,-10"/>
<text text-anchor="start" x="348.1732" y="-15.4" font-family="sans-serif" font-size="14.00" fill="#000000"> &#160;Providers</text>
<polygon fill="#fb8072" stroke="transparent" points="420.5,-10 420.5,-30 440.5,-30 440.5,-10 420.5,-10"/>
<text text-anchor="start" x="444.2258" y="-15.4" font-family="sans-serif" font-size="14.00" fill="#000000"> &#160;Exports</text>
<g id="clust1" class="cluster">
<title>cluster_SharedModule</title>
<polygon fill="none" stroke="#000000" stroke-dasharray="1,5" points="8,-70 8,-268 517,-268 517,-70 8,-70"/>
</g>
<g id="clust2" class="cluster">
<title>cluster_SharedModule_declarations</title>
<polygon fill="none" stroke="#000000" points="22,-78 22,-130 504,-130 504,-78 22,-78"/>
</g>
<g id="clust7" class="cluster">
<title>cluster_SharedModule_exports</title>
<polygon fill="none" stroke="#000000" points="16,-208 16,-260 509,-260 509,-208 16,-208"/>
</g>
<!-- BigInputActionComponent -->
<g id="node1" class="node">
<title>BigInputActionComponent</title>
<polygon fill="#ffffb3" stroke="#000000" points="495.7133,-122 326.2867,-122 326.2867,-86 495.7133,-86 495.7133,-122"/>
<text text-anchor="middle" x="411" y="-99.8" font-family="Times,serif" font-size="14.00" fill="#000000">BigInputActionComponent</text>
</g>
<!-- SharedModule -->
<g id="node4" class="node">
<title>SharedModule</title>
<polygon fill="#8dd3c7" stroke="#000000" points="292.4231,-187 289.4231,-191 268.4231,-191 265.4231,-187 193.5769,-187 193.5769,-151 292.4231,-151 292.4231,-187"/>
<text text-anchor="middle" x="243" y="-164.8" font-family="Times,serif" font-size="14.00" fill="#000000">SharedModule</text>
</g>
<!-- BigInputActionComponent&#45;&gt;SharedModule -->
<g id="edge1" class="edge">
<title>BigInputActionComponent&#45;&gt;SharedModule</title>
<path fill="none" stroke="#000000" d="M439.9522,-122.0225C439.9522,-139.3734 439.9522,-163 439.9522,-163 439.9522,-163 302.4451,-163 302.4451,-163"/>
<polygon fill="#000000" stroke="#000000" points="302.4452,-159.5001 292.4451,-163 302.4451,-166.5001 302.4452,-159.5001"/>
</g>
<!-- BigInputComponent -->
<g id="node2" class="node">
<title>BigInputComponent</title>
<polygon fill="#ffffb3" stroke="#000000" points="308.6108,-122 177.3892,-122 177.3892,-86 308.6108,-86 308.6108,-122"/>
<text text-anchor="middle" x="243" y="-99.8" font-family="Times,serif" font-size="14.00" fill="#000000">BigInputComponent</text>
</g>
<!-- BigInputComponent&#45;&gt;SharedModule -->
<g id="edge2" class="edge">
<title>BigInputComponent&#45;&gt;SharedModule</title>
<path fill="none" stroke="#000000" d="M243,-122.1061C243,-122.1061 243,-140.991 243,-140.991"/>
<polygon fill="#000000" stroke="#000000" points="239.5001,-140.9909 243,-150.991 246.5001,-140.991 239.5001,-140.9909"/>
</g>
<!-- RtlSupportDirective -->
<g id="node3" class="node">
<title>RtlSupportDirective</title>
<polygon fill="#ffffb3" stroke="#000000" points="159.5352,-122 30.4648,-122 30.4648,-86 159.5352,-86 159.5352,-122"/>
<text text-anchor="middle" x="95" y="-99.8" font-family="Times,serif" font-size="14.00" fill="#000000">RtlSupportDirective</text>
</g>
<!-- RtlSupportDirective&#45;&gt;SharedModule -->
<g id="edge3" class="edge">
<title>RtlSupportDirective&#45;&gt;SharedModule</title>
<path fill="none" stroke="#000000" d="M115.0891,-122.0225C115.0891,-139.3734 115.0891,-163 115.0891,-163 115.0891,-163 183.5463,-163 183.5463,-163"/>
<polygon fill="#000000" stroke="#000000" points="183.5463,-166.5001 193.5463,-163 183.5463,-159.5001 183.5463,-166.5001"/>
</g>
<!-- BigInputActionComponent  -->
<g id="node5" class="node">
<title>BigInputActionComponent </title>
<polygon fill="#fb8072" stroke="#000000" points="501.2134,-252 328.7866,-252 328.7866,-216 501.2134,-216 501.2134,-252"/>
<text text-anchor="middle" x="415" y="-229.8" font-family="Times,serif" font-size="14.00" fill="#000000">BigInputActionComponent </text>
</g>
<!-- SharedModule&#45;&gt;BigInputActionComponent  -->
<g id="edge4" class="edge">
<title>SharedModule&#45;&gt;BigInputActionComponent </title>
<path fill="none" stroke="#000000" stroke-dasharray="5,2" d="M292.4191,-175C333.1653,-175 384.2978,-175 384.2978,-175 384.2978,-175 384.2978,-205.9775 384.2978,-205.9775"/>
<polygon fill="#000000" stroke="#000000" points="380.7979,-205.9774 384.2978,-215.9775 387.7979,-205.9775 380.7979,-205.9774"/>
</g>
<!-- BigInputComponent  -->
<g id="node6" class="node">
<title>BigInputComponent </title>
<polygon fill="#fb8072" stroke="#000000" points="310.1114,-252 175.8886,-252 175.8886,-216 310.1114,-216 310.1114,-252"/>
<text text-anchor="middle" x="243" y="-229.8" font-family="Times,serif" font-size="14.00" fill="#000000">BigInputComponent </text>
</g>
<!-- SharedModule&#45;&gt;BigInputComponent  -->
<g id="edge5" class="edge">
<title>SharedModule&#45;&gt;BigInputComponent </title>
<path fill="none" stroke="#000000" stroke-dasharray="5,2" d="M243,-187.1061C243,-187.1061 243,-205.991 243,-205.991"/>
<polygon fill="#000000" stroke="#000000" points="239.5001,-205.9909 243,-215.991 246.5001,-205.991 239.5001,-205.9909"/>
</g>
<!-- RtlSupportDirective  -->
<g id="node7" class="node">
<title>RtlSupportDirective </title>
<polygon fill="#fb8072" stroke="#000000" points="157.5344,-252 24.4656,-252 24.4656,-216 157.5344,-216 157.5344,-252"/>
<text text-anchor="middle" x="91" y="-229.8" font-family="Times,serif" font-size="14.00" fill="#000000">RtlSupportDirective </text>
</g>
<!-- SharedModule&#45;&gt;RtlSupportDirective  -->
<g id="edge6" class="edge">
<title>SharedModule&#45;&gt;RtlSupportDirective </title>
<path fill="none" stroke="#000000" stroke-dasharray="5,2" d="M193.7309,-175C143.4233,-175 72.6609,-175 72.6609,-175 72.6609,-175 72.6609,-205.9775 72.6609,-205.9775"/>
<polygon fill="#000000" stroke="#000000" points="69.161,-205.9774 72.6609,-215.9775 76.161,-205.9775 69.161,-205.9774"/>
</g>
</g>
</svg>
