<?xml version="1.0" encoding="UTF-8" standalone="no"?>
<!DOCTYPE svg PUBLIC "-//W3C//DTD SVG 1.1//EN"
 "http://www.w3.org/Graphics/SVG/1.1/DTD/svg11.dtd">
<!-- Generated by graphviz version 2.40.1 (20161225.0304)
 -->
<!-- Title: dependencies Pages: 1 -->
<svg width="4353pt" height="284pt"
 viewBox="0.00 0.00 4353.00 284.00" xmlns="http://www.w3.org/2000/svg" xmlns:xlink="http://www.w3.org/1999/xlink">
<g id="graph0" class="graph" transform="scale(1 1) rotate(0) translate(4 280)">
<title>dependencies</title>
<polygon fill="#ffffff" stroke="transparent" points="-4,4 -4,-280 4349,-280 4349,4 -4,4"/>
<text text-anchor="start" x="2151.5091" y="-42.4" font-family="sans-serif" font-weight="bold" font-size="14.00" fill="#000000">Legend</text>
<polygon fill="#ffffb3" stroke="transparent" points="1938.5,-10 1938.5,-30 1958.5,-30 1958.5,-10 1938.5,-10"/>
<text text-anchor="start" x="1962.129" y="-15.4" font-family="sans-serif" font-size="14.00" fill="#000000"> &#160;Declarations</text>
<polygon fill="#8dd3c7" stroke="transparent" points="2051.5,-10 2051.5,-30 2071.5,-30 2071.5,-10 2051.5,-10"/>
<text text-anchor="start" x="2075.2251" y="-15.4" font-family="sans-serif" font-size="14.00" fill="#000000"> &#160;Module</text>
<polygon fill="#80b1d3" stroke="transparent" points="2137.5,-10 2137.5,-30 2157.5,-30 2157.5,-10 2137.5,-10"/>
<text text-anchor="start" x="2161.2812" y="-15.4" font-family="sans-serif" font-size="14.00" fill="#000000"> &#160;Bootstrap</text>
<polygon fill="#fdb462" stroke="transparent" points="2234.5,-10 2234.5,-30 2254.5,-30 2254.5,-10 2234.5,-10"/>
<text text-anchor="start" x="2258.1732" y="-15.4" font-family="sans-serif" font-size="14.00" fill="#000000"> &#160;Providers</text>
<polygon fill="#fb8072" stroke="transparent" points="2330.5,-10 2330.5,-30 2350.5,-30 2350.5,-10 2330.5,-10"/>
<text text-anchor="start" x="2354.2258" y="-15.4" font-family="sans-serif" font-size="14.00" fill="#000000"> &#160;Exports</text>
<g id="clust1" class="cluster">
<title>cluster_SharedModule</title>
<polygon fill="none" stroke="#000000" stroke-dasharray="1,5" points="8,-70 8,-268 4337,-268 4337,-70 8,-70"/>
</g>
<g id="clust2" class="cluster">
<title>cluster_SharedModule_declarations</title>
<polygon fill="none" stroke="#000000" points="3582,-78 3582,-130 4064,-130 4064,-78 3582,-78"/>
</g>
<g id="clust6" class="cluster">
<title>cluster_SharedModule_imports</title>
<polygon fill="none" stroke="#000000" points="472,-78 472,-130 3574,-130 3574,-78 472,-78"/>
</g>
<g id="clust7" class="cluster">
<title>cluster_SharedModule_exports</title>
<polygon fill="none" stroke="#000000" points="16,-208 16,-260 4329,-260 4329,-208 16,-208"/>
</g>
<!-- BigInputComponent -->
<g id="node1" class="node">
<title>BigInputComponent</title>
<polygon fill="#ffffb3" stroke="#000000" points="4055.6108,-122 3924.3892,-122 3924.3892,-86 4055.6108,-86 4055.6108,-122"/>
<text text-anchor="middle" x="3990" y="-99.8" font-family="Times,serif" font-size="14.00" fill="#000000">BigInputComponent</text>
</g>
<!-- SharedModule -->
<g id="node4" class="node">
<title>SharedModule</title>
<polygon fill="#8dd3c7" stroke="#000000" points="2321.4231,-187 2318.4231,-191 2297.4231,-191 2294.4231,-187 2222.5769,-187 2222.5769,-151 2321.4231,-151 2321.4231,-187"/>
<text text-anchor="middle" x="2272" y="-164.8" font-family="Times,serif" font-size="14.00" fill="#000000">SharedModule</text>
</g>
<!-- BigInputComponent&#45;&gt;SharedModule -->
<g id="edge1" class="edge">
<title>BigInputComponent&#45;&gt;SharedModule</title>
<path fill="none" stroke="#000000" d="M4011.8518,-122.2222C4011.8518,-140.8285 4011.8518,-167 4011.8518,-167 4011.8518,-167 2331.2678,-167 2331.2678,-167"/>
<polygon fill="#000000" stroke="#000000" points="2331.2678,-163.5001 2321.2678,-167 2331.2677,-170.5001 2331.2678,-163.5001"/>
</g>
<!-- BigInputActionComponent -->
<g id="node2" class="node">
<title>BigInputActionComponent</title>
<polygon fill="#ffffb3" stroke="#000000" points="3906.7133,-122 3737.2867,-122 3737.2867,-86 3906.7133,-86 3906.7133,-122"/>
<text text-anchor="middle" x="3822" y="-99.8" font-family="Times,serif" font-size="14.00" fill="#000000">BigInputActionComponent</text>
</g>
<!-- BigInputActionComponent&#45;&gt;SharedModule -->
<g id="edge2" class="edge">
<title>BigInputActionComponent&#45;&gt;SharedModule</title>
<path fill="none" stroke="#000000" d="M3755.1261,-122.2667C3755.1261,-140.5552 3755.1261,-166 3755.1261,-166 3755.1261,-166 2331.3463,-166 2331.3463,-166"/>
<polygon fill="#000000" stroke="#000000" points="2331.3463,-162.5001 2321.3463,-166 2331.3462,-169.5001 2331.3463,-162.5001"/>
</g>
<!-- RtlSupportDirective -->
<g id="node3" class="node">
<title>RtlSupportDirective</title>
<polygon fill="#ffffb3" stroke="#000000" points="3719.5352,-122 3590.4648,-122 3590.4648,-86 3719.5352,-86 3719.5352,-122"/>
<text text-anchor="middle" x="3655" y="-99.8" font-family="Times,serif" font-size="14.00" fill="#000000">RtlSupportDirective</text>
</g>
<!-- RtlSupportDirective&#45;&gt;SharedModule -->
<g id="edge3" class="edge">
<title>RtlSupportDirective&#45;&gt;SharedModule</title>
<path fill="none" stroke="#000000" d="M3610.6811,-122.302C3610.6811,-140.2699 3610.6811,-165 3610.6811,-165 3610.6811,-165 2331.232,-165 2331.232,-165"/>
<polygon fill="#000000" stroke="#000000" points="2331.232,-161.5001 2321.232,-165 2331.232,-168.5001 2331.232,-161.5001"/>
</g>
<!-- CommonModule  -->
<g id="node27" class="node">
<title>CommonModule </title>
<polygon fill="#fb8072" stroke="#000000" points="4320.6677,-252 4205.3323,-252 4205.3323,-216 4320.6677,-216 4320.6677,-252"/>
<text text-anchor="middle" x="4263" y="-229.8" font-family="Times,serif" font-size="14.00" fill="#000000">CommonModule </text>
</g>
<!-- SharedModule&#45;&gt;CommonModule  -->
<g id="edge26" class="edge">
<title>SharedModule&#45;&gt;CommonModule </title>
<path fill="none" stroke="#000000" stroke-dasharray="5,2" d="M2321.216,-169C2627.8135,-169 4263,-169 4263,-169 4263,-169 4263,-205.8939 4263,-205.8939"/>
<polygon fill="#000000" stroke="#000000" points="4259.5001,-205.8938 4263,-215.8939 4266.5001,-205.8939 4259.5001,-205.8938"/>
</g>
<!-- FormsModule  -->
<g id="node28" class="node">
<title>FormsModule </title>
<polygon fill="#fb8072" stroke="#000000" points="4187.3283,-252 4088.6717,-252 4088.6717,-216 4187.3283,-216 4187.3283,-252"/>
<text text-anchor="middle" x="4138" y="-229.8" font-family="Times,serif" font-size="14.00" fill="#000000">FormsModule </text>
</g>
<!-- SharedModule&#45;&gt;FormsModule  -->
<g id="edge27" class="edge">
<title>SharedModule&#45;&gt;FormsModule </title>
<path fill="none" stroke="#000000" stroke-dasharray="5,2" d="M2321.4303,-170C2617.0128,-170 4138,-170 4138,-170 4138,-170 4138,-205.8314 4138,-205.8314"/>
<polygon fill="#000000" stroke="#000000" points="4134.5001,-205.8313 4138,-215.8314 4141.5001,-205.8314 4134.5001,-205.8313"/>
</g>
<!-- ReactiveFormsModule  -->
<g id="node29" class="node">
<title>ReactiveFormsModule </title>
<polygon fill="#fb8072" stroke="#000000" points="4070.8045,-252 3923.1955,-252 3923.1955,-216 4070.8045,-216 4070.8045,-252"/>
<text text-anchor="middle" x="3997" y="-229.8" font-family="Times,serif" font-size="14.00" fill="#000000">ReactiveFormsModule </text>
</g>
<!-- SharedModule&#45;&gt;ReactiveFormsModule  -->
<g id="edge28" class="edge">
<title>SharedModule&#45;&gt;ReactiveFormsModule </title>
<path fill="none" stroke="#000000" stroke-dasharray="5,2" d="M2321.3876,-171C2600.5222,-171 3968.1482,-171 3968.1482,-171 3968.1482,-171 3968.1482,-205.7778 3968.1482,-205.7778"/>
<polygon fill="#000000" stroke="#000000" points="3964.6483,-205.7778 3968.1482,-215.7778 3971.6483,-205.7778 3964.6483,-205.7778"/>
</g>
<!-- TranslateModule  -->
<g id="node30" class="node">
<title>TranslateModule </title>
<polygon fill="#fb8072" stroke="#000000" points="3905.6327,-252 3790.3673,-252 3790.3673,-216 3905.6327,-216 3905.6327,-252"/>
<text text-anchor="middle" x="3848" y="-229.8" font-family="Times,serif" font-size="14.00" fill="#000000">TranslateModule </text>
</g>
<!-- SharedModule&#45;&gt;TranslateModule  -->
<g id="edge29" class="edge">
<title>SharedModule&#45;&gt;TranslateModule </title>
<path fill="none" stroke="#000000" stroke-dasharray="5,2" d="M2321.3312,-173C2588.283,-173 3848,-173 3848,-173 3848,-173 3848,-205.698 3848,-205.698"/>
<polygon fill="#000000" stroke="#000000" points="3844.5001,-205.698 3848,-215.698 3851.5001,-205.698 3844.5001,-205.698"/>
</g>
<!-- MatButtonModule  -->
<g id="node31" class="node">
<title>MatButtonModule </title>
<polygon fill="#fb8072" stroke="#000000" points="3772.7177,-252 3649.2823,-252 3649.2823,-216 3772.7177,-216 3772.7177,-252"/>
<text text-anchor="middle" x="3711" y="-229.8" font-family="Times,serif" font-size="14.00" fill="#000000">MatButtonModule </text>
</g>
<!-- SharedModule&#45;&gt;MatButtonModule  -->
<g id="edge30" class="edge">
<title>SharedModule&#45;&gt;MatButtonModule </title>
<path fill="none" stroke="#000000" stroke-dasharray="5,2" d="M2321.4418,-174C2571.4361,-174 3684.4543,-174 3684.4543,-174 3684.4543,-174 3684.4543,-205.998 3684.4543,-205.998"/>
<polygon fill="#000000" stroke="#000000" points="3680.9543,-205.998 3684.4543,-215.998 3687.9543,-205.9981 3680.9543,-205.998"/>
</g>
<!-- MatMenuModule  -->
<g id="node32" class="node">
<title>MatMenuModule </title>
<polygon fill="#fb8072" stroke="#000000" points="3631.2591,-252 3512.7409,-252 3512.7409,-216 3631.2591,-216 3631.2591,-252"/>
<text text-anchor="middle" x="3572" y="-229.8" font-family="Times,serif" font-size="14.00" fill="#000000">MatMenuModule </text>
</g>
<!-- SharedModule&#45;&gt;MatMenuModule  -->
<g id="edge31" class="edge">
<title>SharedModule&#45;&gt;MatMenuModule </title>
<path fill="none" stroke="#000000" stroke-dasharray="5,2" d="M2321.2927,-175C2554.9064,-175 3539.3522,-175 3539.3522,-175 3539.3522,-175 3539.3522,-205.9775 3539.3522,-205.9775"/>
<polygon fill="#000000" stroke="#000000" points="3535.8523,-205.9774 3539.3522,-215.9775 3542.8523,-205.9775 3535.8523,-205.9774"/>
</g>
<!-- MatTabsModule  -->
<g id="node33" class="node">
<title>MatTabsModule </title>
<polygon fill="#fb8072" stroke="#000000" points="3494.3116,-252 3381.6884,-252 3381.6884,-216 3494.3116,-216 3494.3116,-252"/>
<text text-anchor="middle" x="3438" y="-229.8" font-family="Times,serif" font-size="14.00" fill="#000000">MatTabsModule </text>
</g>
<!-- SharedModule&#45;&gt;MatTabsModule  -->
<g id="edge32" class="edge">
<title>SharedModule&#45;&gt;MatTabsModule </title>
<path fill="none" stroke="#000000" stroke-dasharray="5,2" d="M2321.226,-177C2539.4861,-177 3409.1292,-177 3409.1292,-177 3409.1292,-177 3409.1292,-205.9648 3409.1292,-205.9648"/>
<polygon fill="#000000" stroke="#000000" points="3405.6293,-205.9648 3409.1292,-215.9648 3412.6293,-205.9649 3405.6293,-205.9648"/>
</g>
<!-- MatChipsModule  -->
<g id="node34" class="node">
<title>MatChipsModule </title>
<polygon fill="#fb8072" stroke="#000000" points="3363.2717,-252 3244.7283,-252 3244.7283,-216 3363.2717,-216 3363.2717,-252"/>
<text text-anchor="middle" x="3304" y="-229.8" font-family="Times,serif" font-size="14.00" fill="#000000">MatChipsModule </text>
</g>
<!-- SharedModule&#45;&gt;MatChipsModule  -->
<g id="edge33" class="edge">
<title>SharedModule&#45;&gt;MatChipsModule </title>
<path fill="none" stroke="#000000" stroke-dasharray="5,2" d="M2321.5126,-178C2524.7597,-178 3284.3403,-178 3284.3403,-178 3284.3403,-178 3284.3403,-205.973 3284.3403,-205.973"/>
<polygon fill="#000000" stroke="#000000" points="3280.8404,-205.973 3284.3403,-215.973 3287.8404,-205.973 3280.8404,-205.973"/>
</g>
<!-- MatInputModule  -->
<g id="node35" class="node">
<title>MatInputModule </title>
<polygon fill="#fb8072" stroke="#000000" points="3226.6509,-252 3111.3491,-252 3111.3491,-216 3226.6509,-216 3226.6509,-252"/>
<text text-anchor="middle" x="3169" y="-229.8" font-family="Times,serif" font-size="14.00" fill="#000000">MatInputModule </text>
</g>
<!-- SharedModule&#45;&gt;MatInputModule  -->
<g id="edge34" class="edge">
<title>SharedModule&#45;&gt;MatInputModule </title>
<path fill="none" stroke="#000000" stroke-dasharray="5,2" d="M2321.2411,-179C2506.7256,-179 3152.7666,-179 3152.7666,-179 3152.7666,-179 3152.7666,-205.9909 3152.7666,-205.9909"/>
<polygon fill="#000000" stroke="#000000" points="3149.2667,-205.9909 3152.7666,-215.9909 3156.2667,-205.991 3149.2667,-205.9909"/>
</g>
<!-- MatProgressSpinnerModule  -->
<g id="node36" class="node">
<title>MatProgressSpinnerModule </title>
<polygon fill="#fb8072" stroke="#000000" points="3093.856,-252 2916.144,-252 2916.144,-216 3093.856,-216 3093.856,-252"/>
<text text-anchor="middle" x="3005" y="-229.8" font-family="Times,serif" font-size="14.00" fill="#000000">MatProgressSpinnerModule </text>
</g>
<!-- SharedModule&#45;&gt;MatProgressSpinnerModule  -->
<g id="edge35" class="edge">
<title>SharedModule&#45;&gt;MatProgressSpinnerModule </title>
<path fill="none" stroke="#000000" stroke-dasharray="5,2" d="M2321.4694,-181C2473.4031,-181 2923.0566,-181 2923.0566,-181 2923.0566,-181 2923.0566,-205.7604 2923.0566,-205.7604"/>
<polygon fill="#000000" stroke="#000000" points="2919.5567,-205.7604 2923.0566,-215.7604 2926.5567,-205.7604 2919.5567,-205.7604"/>
</g>
<!-- MatCheckboxModule  -->
<g id="node37" class="node">
<title>MatCheckboxModule </title>
<polygon fill="#fb8072" stroke="#000000" points="2898.3659,-252 2755.6341,-252 2755.6341,-216 2898.3659,-216 2898.3659,-252"/>
<text text-anchor="middle" x="2827" y="-229.8" font-family="Times,serif" font-size="14.00" fill="#000000">MatCheckboxModule </text>
</g>
<!-- SharedModule&#45;&gt;MatCheckboxModule  -->
<g id="edge36" class="edge">
<title>SharedModule&#45;&gt;MatCheckboxModule </title>
<path fill="none" stroke="#000000" stroke-dasharray="5,2" d="M2321.246,-182C2446.3837,-182 2766.7365,-182 2766.7365,-182 2766.7365,-182 2766.7365,-205.8129 2766.7365,-205.8129"/>
<polygon fill="#000000" stroke="#000000" points="2763.2366,-205.8129 2766.7365,-215.8129 2770.2366,-205.813 2763.2366,-205.8129"/>
</g>
<!-- MatCardModule  -->
<g id="node38" class="node">
<title>MatCardModule </title>
<polygon fill="#fb8072" stroke="#000000" points="2737.3116,-252 2624.6884,-252 2624.6884,-216 2737.3116,-216 2737.3116,-252"/>
<text text-anchor="middle" x="2681" y="-229.8" font-family="Times,serif" font-size="14.00" fill="#000000">MatCardModule </text>
</g>
<!-- SharedModule&#45;&gt;MatCardModule  -->
<g id="edge37" class="edge">
<title>SharedModule&#45;&gt;MatCardModule </title>
<path fill="none" stroke="#000000" stroke-dasharray="5,2" d="M2321.3213,-183C2421.1444,-183 2637.7099,-183 2637.7099,-183 2637.7099,-183 2637.7099,-205.8757 2637.7099,-205.8757"/>
<polygon fill="#000000" stroke="#000000" points="2634.2099,-205.8757 2637.7099,-215.8757 2641.2099,-205.8757 2634.2099,-205.8757"/>
</g>
<!-- MatSidenavModule  -->
<g id="node39" class="node">
<title>MatSidenavModule </title>
<polygon fill="#fb8072" stroke="#000000" points="2606.2023,-252 2475.7977,-252 2475.7977,-216 2606.2023,-216 2606.2023,-252"/>
<text text-anchor="middle" x="2541" y="-229.8" font-family="Times,serif" font-size="14.00" fill="#000000">MatSidenavModule </text>
</g>
<!-- SharedModule&#45;&gt;MatSidenavModule  -->
<g id="edge38" class="edge">
<title>SharedModule&#45;&gt;MatSidenavModule </title>
<path fill="none" stroke="#000000" stroke-dasharray="5,2" d="M2321.3803,-185C2387.9633,-185 2498.2884,-185 2498.2884,-185 2498.2884,-185 2498.2884,-205.7542 2498.2884,-205.7542"/>
<polygon fill="#000000" stroke="#000000" points="2494.7885,-205.7542 2498.2884,-215.7542 2501.7885,-205.7542 2494.7885,-205.7542"/>
</g>
<!-- MatListModule  -->
<g id="node40" class="node">
<title>MatListModule </title>
<polygon fill="#fb8072" stroke="#000000" points="2457.8787,-252 2350.1213,-252 2350.1213,-216 2457.8787,-216 2457.8787,-252"/>
<text text-anchor="middle" x="2404" y="-229.8" font-family="Times,serif" font-size="14.00" fill="#000000">MatListModule </text>
</g>
<!-- SharedModule&#45;&gt;MatListModule  -->
<g id="edge39" class="edge">
<title>SharedModule&#45;&gt;MatListModule </title>
<path fill="none" stroke="#000000" stroke-dasharray="5,2" d="M2321.4971,-186C2365.1586,-186 2421.8963,-186 2421.8963,-186 2421.8963,-186 2421.8963,-205.8533 2421.8963,-205.8533"/>
<polygon fill="#000000" stroke="#000000" points="2418.3964,-205.8532 2421.8963,-215.8533 2425.3964,-205.8533 2418.3964,-205.8532"/>
</g>
<!-- MatSelectModule  -->
<g id="node41" class="node">
<title>MatSelectModule </title>
<polygon fill="#fb8072" stroke="#000000" points="2331.8074,-252 2212.1926,-252 2212.1926,-216 2331.8074,-216 2331.8074,-252"/>
<text text-anchor="middle" x="2272" y="-229.8" font-family="Times,serif" font-size="14.00" fill="#000000">MatSelectModule </text>
</g>
<!-- SharedModule&#45;&gt;MatSelectModule  -->
<g id="edge40" class="edge">
<title>SharedModule&#45;&gt;MatSelectModule </title>
<path fill="none" stroke="#000000" stroke-dasharray="5,2" d="M2272,-187.1061C2272,-187.1061 2272,-205.991 2272,-205.991"/>
<polygon fill="#000000" stroke="#000000" points="2268.5001,-205.9909 2272,-215.991 2275.5001,-205.991 2268.5001,-205.9909"/>
</g>
<!-- MatToolbarModule  -->
<g id="node42" class="node">
<title>MatToolbarModule </title>
<polygon fill="#fb8072" stroke="#000000" points="2193.918,-252 2064.082,-252 2064.082,-216 2193.918,-216 2193.918,-252"/>
<text text-anchor="middle" x="2129" y="-229.8" font-family="Times,serif" font-size="14.00" fill="#000000">MatToolbarModule </text>
</g>
<!-- SharedModule&#45;&gt;MatToolbarModule  -->
<g id="edge41" class="edge">
<title>SharedModule&#45;&gt;MatToolbarModule </title>
<path fill="none" stroke="#000000" stroke-dasharray="5,2" d="M2222.7601,-186C2179.3255,-186 2122.8825,-186 2122.8825,-186 2122.8825,-186 2122.8825,-205.8533 2122.8825,-205.8533"/>
<polygon fill="#000000" stroke="#000000" points="2119.3826,-205.8532 2122.8825,-215.8533 2126.3826,-205.8533 2119.3826,-205.8532"/>
</g>
<!-- MatIconModule  -->
<g id="node43" class="node">
<title>MatIconModule </title>
<polygon fill="#fb8072" stroke="#000000" points="2046.4758,-252 1935.5242,-252 1935.5242,-216 2046.4758,-216 2046.4758,-252"/>
<text text-anchor="middle" x="1991" y="-229.8" font-family="Times,serif" font-size="14.00" fill="#000000">MatIconModule </text>
</g>
<!-- SharedModule&#45;&gt;MatIconModule  -->
<g id="edge42" class="edge">
<title>SharedModule&#45;&gt;MatIconModule </title>
<path fill="none" stroke="#000000" stroke-dasharray="5,2" d="M2222.676,-185C2142.8814,-185 1994.3182,-185 1994.3182,-185 1994.3182,-185 1994.3182,-205.7542 1994.3182,-205.7542"/>
<polygon fill="#000000" stroke="#000000" points="1990.8183,-205.7542 1994.3182,-215.7542 1997.8183,-205.7542 1990.8183,-205.7542"/>
</g>
<!-- MatTooltipModule  -->
<g id="node44" class="node">
<title>MatTooltipModule </title>
<polygon fill="#fb8072" stroke="#000000" points="1917.3241,-252 1790.6759,-252 1790.6759,-216 1917.3241,-216 1917.3241,-252"/>
<text text-anchor="middle" x="1854" y="-229.8" font-family="Times,serif" font-size="14.00" fill="#000000">MatTooltipModule </text>
</g>
<!-- SharedModule&#45;&gt;MatTooltipModule  -->
<g id="edge43" class="edge">
<title>SharedModule&#45;&gt;MatTooltipModule </title>
<path fill="none" stroke="#000000" stroke-dasharray="5,2" d="M2222.4085,-183C2111.6846,-183 1854,-183 1854,-183 1854,-183 1854,-205.8757 1854,-205.8757"/>
<polygon fill="#000000" stroke="#000000" points="1850.5001,-205.8757 1854,-215.8757 1857.5001,-205.8757 1850.5001,-205.8757"/>
</g>
<!-- MatSnackBarModule  -->
<g id="node45" class="node">
<title>MatSnackBarModule </title>
<polygon fill="#fb8072" stroke="#000000" points="1773.0232,-252 1632.9768,-252 1632.9768,-216 1773.0232,-216 1773.0232,-252"/>
<text text-anchor="middle" x="1703" y="-229.8" font-family="Times,serif" font-size="14.00" fill="#000000">MatSnackBarModule </text>
</g>
<!-- SharedModule&#45;&gt;MatSnackBarModule  -->
<g id="edge44" class="edge">
<title>SharedModule&#45;&gt;MatSnackBarModule </title>
<path fill="none" stroke="#000000" stroke-dasharray="5,2" d="M2222.6235,-182C2083.5585,-182 1698.687,-182 1698.687,-182 1698.687,-182 1698.687,-205.8129 1698.687,-205.8129"/>
<polygon fill="#000000" stroke="#000000" points="1695.1871,-205.8129 1698.687,-215.8129 1702.1871,-205.813 1695.1871,-205.8129"/>
</g>
<!-- MatSlideToggleModule  -->
<g id="node46" class="node">
<title>MatSlideToggleModule </title>
<polygon fill="#fb8072" stroke="#000000" points="1615.0358,-252 1460.9642,-252 1460.9642,-216 1615.0358,-216 1615.0358,-252"/>
<text text-anchor="middle" x="1538" y="-229.8" font-family="Times,serif" font-size="14.00" fill="#000000">MatSlideToggleModule </text>
</g>
<!-- SharedModule&#45;&gt;MatSlideToggleModule  -->
<g id="edge45" class="edge">
<title>SharedModule&#45;&gt;MatSlideToggleModule </title>
<path fill="none" stroke="#000000" stroke-dasharray="5,2" d="M2222.5918,-181C2063.264,-181 1573.3193,-181 1573.3193,-181 1573.3193,-181 1573.3193,-205.7604 1573.3193,-205.7604"/>
<polygon fill="#000000" stroke="#000000" points="1569.8193,-205.7604 1573.3193,-215.7604 1576.8193,-205.7604 1569.8193,-205.7604"/>
</g>
<!-- MatDividerModule  -->
<g id="node47" class="node">
<title>MatDividerModule </title>
<polygon fill="#fb8072" stroke="#000000" points="1443.3631,-252 1314.6369,-252 1314.6369,-216 1443.3631,-216 1443.3631,-252"/>
<text text-anchor="middle" x="1379" y="-229.8" font-family="Times,serif" font-size="14.00" fill="#000000">MatDividerModule </text>
</g>
<!-- SharedModule&#45;&gt;MatDividerModule  -->
<g id="edge46" class="edge">
<title>SharedModule&#45;&gt;MatDividerModule </title>
<path fill="none" stroke="#000000" stroke-dasharray="5,2" d="M2222.481,-179C2041.2827,-179 1424.847,-179 1424.847,-179 1424.847,-179 1424.847,-205.9909 1424.847,-205.9909"/>
<polygon fill="#000000" stroke="#000000" points="1421.347,-205.9909 1424.847,-215.9909 1428.347,-205.991 1421.347,-205.9909"/>
</g>
<!-- MatSliderModule  -->
<g id="node48" class="node">
<title>MatSliderModule </title>
<polygon fill="#fb8072" stroke="#000000" points="1296.5386,-252 1177.4614,-252 1177.4614,-216 1296.5386,-216 1296.5386,-252"/>
<text text-anchor="middle" x="1237" y="-229.8" font-family="Times,serif" font-size="14.00" fill="#000000">MatSliderModule </text>
</g>
<!-- SharedModule&#45;&gt;MatSliderModule  -->
<g id="edge47" class="edge">
<title>SharedModule&#45;&gt;MatSliderModule </title>
<path fill="none" stroke="#000000" stroke-dasharray="5,2" d="M2222.5135,-178C2022.0377,-178 1280.9286,-178 1280.9286,-178 1280.9286,-178 1280.9286,-205.973 1280.9286,-205.973"/>
<polygon fill="#000000" stroke="#000000" points="1277.4287,-205.973 1280.9286,-215.973 1284.4287,-205.973 1277.4287,-205.973"/>
</g>
<!-- MatDatepickerModule  -->
<g id="node49" class="node">
<title>MatDatepickerModule </title>
<polygon fill="#fb8072" stroke="#000000" points="1159.5064,-252 1012.4936,-252 1012.4936,-216 1159.5064,-216 1159.5064,-252"/>
<text text-anchor="middle" x="1086" y="-229.8" font-family="Times,serif" font-size="14.00" fill="#000000">MatDatepickerModule </text>
</g>
<!-- SharedModule&#45;&gt;MatDatepickerModule  -->
<g id="edge48" class="edge">
<title>SharedModule&#45;&gt;MatDatepickerModule </title>
<path fill="none" stroke="#000000" stroke-dasharray="5,2" d="M2222.7848,-177C2004.5728,-177 1135.1208,-177 1135.1208,-177 1135.1208,-177 1135.1208,-205.9648 1135.1208,-205.9648"/>
<polygon fill="#000000" stroke="#000000" points="1131.6209,-205.9648 1135.1208,-215.9648 1138.6209,-205.9649 1131.6209,-205.9648"/>
</g>
<!-- MatNativeDateModule  -->
<g id="node50" class="node">
<title>MatNativeDateModule </title>
<polygon fill="#fb8072" stroke="#000000" points="994.8434,-252 845.1566,-252 845.1566,-216 994.8434,-216 994.8434,-252"/>
<text text-anchor="middle" x="920" y="-229.8" font-family="Times,serif" font-size="14.00" fill="#000000">MatNativeDateModule </text>
</g>
<!-- SharedModule&#45;&gt;MatNativeDateModule  -->
<g id="edge49" class="edge">
<title>SharedModule&#45;&gt;MatNativeDateModule </title>
<path fill="none" stroke="#000000" stroke-dasharray="5,2" d="M2222.4816,-175C1984.3272,-175 968.2018,-175 968.2018,-175 968.2018,-175 968.2018,-205.9775 968.2018,-205.9775"/>
<polygon fill="#000000" stroke="#000000" points="964.7017,-205.9775 968.2018,-215.9775 971.7017,-205.9774 964.7017,-205.9775"/>
</g>
<!-- MatExpansionModule  -->
<g id="node51" class="node">
<title>MatExpansionModule </title>
<polygon fill="#fb8072" stroke="#000000" points="827.2023,-252 682.7977,-252 682.7977,-216 827.2023,-216 827.2023,-252"/>
<text text-anchor="middle" x="755" y="-229.8" font-family="Times,serif" font-size="14.00" fill="#000000">MatExpansionModule </text>
</g>
<!-- SharedModule&#45;&gt;MatExpansionModule  -->
<g id="edge50" class="edge">
<title>SharedModule&#45;&gt;MatExpansionModule </title>
<path fill="none" stroke="#000000" stroke-dasharray="5,2" d="M2222.6191,-174C1967.7527,-174 812.9599,-174 812.9599,-174 812.9599,-174 812.9599,-205.998 812.9599,-205.998"/>
<polygon fill="#000000" stroke="#000000" points="809.4599,-205.998 812.9599,-215.998 816.4599,-205.9981 809.4599,-205.998"/>
</g>
<!-- FontAwesomeModule  -->
<g id="node52" class="node">
<title>FontAwesomeModule </title>
<polygon fill="#fb8072" stroke="#000000" points="664.2009,-252 519.7991,-252 519.7991,-216 664.2009,-216 664.2009,-252"/>
<text text-anchor="middle" x="592" y="-229.8" font-family="Times,serif" font-size="14.00" fill="#000000">FontAwesomeModule </text>
</g>
<!-- SharedModule&#45;&gt;FontAwesomeModule  -->
<g id="edge51" class="edge">
<title>SharedModule&#45;&gt;FontAwesomeModule </title>
<path fill="none" stroke="#000000" stroke-dasharray="5,2" d="M2222.6282,-173C1951.1086,-173 651.8747,-173 651.8747,-173 651.8747,-173 651.8747,-205.698 651.8747,-205.698"/>
<polygon fill="#000000" stroke="#000000" points="648.3747,-205.698 651.8747,-215.698 655.3747,-205.698 648.3747,-205.698"/>
</g>
<!-- BigInputComponent  -->
<g id="node53" class="node">
<title>BigInputComponent </title>
<polygon fill="#fb8072" stroke="#000000" points="501.1114,-252 366.8886,-252 366.8886,-216 501.1114,-216 501.1114,-252"/>
<text text-anchor="middle" x="434" y="-229.8" font-family="Times,serif" font-size="14.00" fill="#000000">BigInputComponent </text>
</g>
<!-- SharedModule&#45;&gt;BigInputComponent  -->
<g id="edge52" class="edge">
<title>SharedModule&#45;&gt;BigInputComponent </title>
<path fill="none" stroke="#000000" stroke-dasharray="5,2" d="M2222.5029,-171C1934.8346,-171 490.8526,-171 490.8526,-171 490.8526,-171 490.8526,-205.7778 490.8526,-205.7778"/>
<polygon fill="#000000" stroke="#000000" points="487.3526,-205.7778 490.8526,-215.7778 494.3526,-205.7778 487.3526,-205.7778"/>
</g>
<!-- BigInputActionComponent  -->
<g id="node54" class="node">
<title>BigInputActionComponent </title>
<polygon fill="#fb8072" stroke="#000000" points="348.2134,-252 175.7866,-252 175.7866,-216 348.2134,-216 348.2134,-252"/>
<text text-anchor="middle" x="262" y="-229.8" font-family="Times,serif" font-size="14.00" fill="#000000">BigInputActionComponent </text>
</g>
<!-- SharedModule&#45;&gt;BigInputActionComponent  -->
<g id="edge53" class="edge">
<title>SharedModule&#45;&gt;BigInputActionComponent </title>
<path fill="none" stroke="#000000" stroke-dasharray="5,2" d="M2222.3143,-170C1912.791,-170 262,-170 262,-170 262,-170 262,-205.8314 262,-205.8314"/>
<polygon fill="#000000" stroke="#000000" points="258.5001,-205.8313 262,-215.8314 265.5001,-205.8314 258.5001,-205.8313"/>
</g>
<!-- RtlSupportDirective  -->
<g id="node55" class="node">
<title>RtlSupportDirective </title>
<polygon fill="#fb8072" stroke="#000000" points="157.5344,-252 24.4656,-252 24.4656,-216 157.5344,-216 157.5344,-252"/>
<text text-anchor="middle" x="91" y="-229.8" font-family="Times,serif" font-size="14.00" fill="#000000">RtlSupportDirective </text>
</g>
<!-- SharedModule&#45;&gt;RtlSupportDirective  -->
<g id="edge54" class="edge">
<title>SharedModule&#45;&gt;RtlSupportDirective </title>
<path fill="none" stroke="#000000" stroke-dasharray="5,2" d="M2222.6099,-169C1898.6758,-169 91,-169 91,-169 91,-169 91,-205.8939 91,-205.8939"/>
<polygon fill="#000000" stroke="#000000" points="87.5001,-205.8938 91,-215.8939 94.5001,-205.8939 87.5001,-205.8938"/>
</g>
<!-- CommonModule -->
<g id="node5" class="node">
<title>CommonModule</title>
<polygon fill="#8dd3c7" stroke="#000000" points="3565.6681,-122 3562.6681,-126 3541.6681,-126 3538.6681,-122 3454.3319,-122 3454.3319,-86 3565.6681,-86 3565.6681,-122"/>
<text text-anchor="middle" x="3510" y="-99.8" font-family="Times,serif" font-size="14.00" fill="#000000">CommonModule</text>
</g>
<!-- CommonModule&#45;&gt;SharedModule -->
<g id="edge4" class="edge">
<title>CommonModule&#45;&gt;SharedModule</title>
<path fill="none" stroke="#000000" d="M3474.286,-122.0225C3474.286,-139.3734 3474.286,-163 3474.286,-163 3474.286,-163 2331.3725,-163 2331.3725,-163"/>
<polygon fill="#000000" stroke="#000000" points="2331.3725,-159.5001 2321.3725,-163 2331.3724,-166.5001 2331.3725,-159.5001"/>
</g>
<!-- FormsModule -->
<g id="node6" class="node">
<title>FormsModule</title>
<polygon fill="#8dd3c7" stroke="#000000" points="3436.8288,-122 3433.8288,-126 3412.8288,-126 3409.8288,-122 3341.1712,-122 3341.1712,-86 3436.8288,-86 3436.8288,-122"/>
<text text-anchor="middle" x="3389" y="-99.8" font-family="Times,serif" font-size="14.00" fill="#000000">FormsModule</text>
</g>
<!-- FormsModule&#45;&gt;SharedModule -->
<g id="edge5" class="edge">
<title>FormsModule&#45;&gt;SharedModule</title>
<path fill="none" stroke="#000000" d="M3352.2358,-122.0336C3352.2358,-139.0597 3352.2358,-162 3352.2358,-162 3352.2358,-162 2331.2225,-162 2331.2225,-162"/>
<polygon fill="#000000" stroke="#000000" points="2331.2225,-158.5001 2321.2225,-162 2331.2225,-165.5001 2331.2225,-158.5001"/>
</g>
<!-- TranslateModule -->
<g id="node7" class="node">
<title>TranslateModule</title>
<polygon fill="#8dd3c7" stroke="#000000" points="3323.6332,-122 3320.6332,-126 3299.6332,-126 3296.6332,-122 3212.3668,-122 3212.3668,-86 3323.6332,-86 3323.6332,-122"/>
<text text-anchor="middle" x="3268" y="-99.8" font-family="Times,serif" font-size="14.00" fill="#000000">TranslateModule</text>
</g>
<!-- TranslateModule&#45;&gt;SharedModule -->
<g id="edge6" class="edge">
<title>TranslateModule&#45;&gt;SharedModule</title>
<path fill="none" stroke="#000000" d="M3219.3796,-122.0352C3219.3796,-138.7344 3219.3796,-161 3219.3796,-161 3219.3796,-161 2331.2703,-161 2331.2703,-161"/>
<polygon fill="#000000" stroke="#000000" points="2331.2704,-157.5001 2321.2703,-161 2331.2703,-164.5001 2331.2704,-157.5001"/>
</g>
<!-- MatButtonModule -->
<g id="node8" class="node">
<title>MatButtonModule</title>
<polygon fill="#8dd3c7" stroke="#000000" points="3194.2176,-122 3191.2176,-126 3170.2176,-126 3167.2176,-122 3073.7824,-122 3073.7824,-86 3194.2176,-86 3194.2176,-122"/>
<text text-anchor="middle" x="3134" y="-99.8" font-family="Times,serif" font-size="14.00" fill="#000000">MatButtonModule</text>
</g>
<!-- MatButtonModule&#45;&gt;SharedModule -->
<g id="edge7" class="edge">
<title>MatButtonModule&#45;&gt;SharedModule</title>
<path fill="none" stroke="#000000" d="M3083.7846,-122.0091C3083.7846,-138.0494 3083.7846,-159 3083.7846,-159 3083.7846,-159 2331.2553,-159 2331.2553,-159"/>
<polygon fill="#000000" stroke="#000000" points="2331.2553,-155.5001 2321.2553,-159 2331.2552,-162.5001 2331.2553,-155.5001"/>
</g>
<!-- MatToolbarModule -->
<g id="node9" class="node">
<title>MatToolbarModule</title>
<polygon fill="#8dd3c7" stroke="#000000" points="3056.4187,-122 3053.4187,-126 3032.4187,-126 3029.4187,-122 2929.5813,-122 2929.5813,-86 3056.4187,-86 3056.4187,-122"/>
<text text-anchor="middle" x="2993" y="-99.8" font-family="Times,serif" font-size="14.00" fill="#000000">MatToolbarModule</text>
</g>
<!-- MatToolbarModule&#45;&gt;SharedModule -->
<g id="edge8" class="edge">
<title>MatToolbarModule&#45;&gt;SharedModule</title>
<path fill="none" stroke="#000000" d="M2993,-122.2819C2993,-137.9478 2993,-158 2993,-158 2993,-158 2331.2735,-158 2331.2735,-158"/>
<polygon fill="#000000" stroke="#000000" points="2331.2735,-154.5001 2321.2735,-158 2331.2734,-161.5001 2331.2735,-154.5001"/>
</g>
<!-- MatSelectModule -->
<g id="node10" class="node">
<title>MatSelectModule</title>
<polygon fill="#8dd3c7" stroke="#000000" points="2912.3076,-122 2909.3076,-126 2888.3076,-126 2885.3076,-122 2795.6924,-122 2795.6924,-86 2912.3076,-86 2912.3076,-122"/>
<text text-anchor="middle" x="2854" y="-99.8" font-family="Times,serif" font-size="14.00" fill="#000000">MatSelectModule</text>
</g>
<!-- MatSelectModule&#45;&gt;SharedModule -->
<g id="edge9" class="edge">
<title>MatSelectModule&#45;&gt;SharedModule</title>
<path fill="none" stroke="#000000" d="M2847.0146,-122.2396C2847.0146,-137.5706 2847.0146,-157 2847.0146,-157 2847.0146,-157 2331.5231,-157 2331.5231,-157"/>
<polygon fill="#000000" stroke="#000000" points="2331.5231,-153.5001 2321.5231,-157 2331.5231,-160.5001 2331.5231,-153.5001"/>
</g>
<!-- MatTabsModule -->
<g id="node11" class="node">
<title>MatTabsModule</title>
<polygon fill="#8dd3c7" stroke="#000000" points="2777.8118,-122 2774.8118,-126 2753.8118,-126 2750.8118,-122 2668.1882,-122 2668.1882,-86 2777.8118,-86 2777.8118,-122"/>
<text text-anchor="middle" x="2723" y="-99.8" font-family="Times,serif" font-size="14.00" fill="#000000">MatTabsModule</text>
</g>
<!-- MatTabsModule&#45;&gt;SharedModule -->
<g id="edge10" class="edge">
<title>MatTabsModule&#45;&gt;SharedModule</title>
<path fill="none" stroke="#000000" d="M2702.875,-122.1243C2702.875,-136.7832 2702.875,-155 2702.875,-155 2702.875,-155 2331.4268,-155 2331.4268,-155"/>
<polygon fill="#000000" stroke="#000000" points="2331.4269,-151.5001 2321.4268,-155 2331.4268,-158.5001 2331.4269,-151.5001"/>
</g>
<!-- MatInputModule -->
<g id="node12" class="node">
<title>MatInputModule</title>
<polygon fill="#8dd3c7" stroke="#000000" points="2650.6513,-122 2647.6513,-126 2626.6513,-126 2623.6513,-122 2539.3487,-122 2539.3487,-86 2650.6513,-86 2650.6513,-122"/>
<text text-anchor="middle" x="2595" y="-99.8" font-family="Times,serif" font-size="14.00" fill="#000000">MatInputModule</text>
</g>
<!-- MatInputModule&#45;&gt;SharedModule -->
<g id="edge11" class="edge">
<title>MatInputModule&#45;&gt;SharedModule</title>
<path fill="none" stroke="#000000" d="M2572.7628,-122.0511C2572.7628,-136.373 2572.7628,-154 2572.7628,-154 2572.7628,-154 2331.3281,-154 2331.3281,-154"/>
<polygon fill="#000000" stroke="#000000" points="2331.3281,-150.5001 2321.3281,-154 2331.328,-157.5001 2331.3281,-150.5001"/>
</g>
<!-- MatProgressSpinnerModule -->
<g id="node13" class="node">
<title>MatProgressSpinnerModule</title>
<polygon fill="#8dd3c7" stroke="#000000" points="2520.8557,-122 2517.8557,-126 2496.8557,-126 2493.8557,-122 2347.1443,-122 2347.1443,-86 2520.8557,-86 2520.8557,-122"/>
<text text-anchor="middle" x="2434" y="-99.8" font-family="Times,serif" font-size="14.00" fill="#000000">MatProgressSpinnerModule</text>
</g>
<!-- MatProgressSpinnerModule&#45;&gt;SharedModule -->
<g id="edge12" class="edge">
<title>MatProgressSpinnerModule&#45;&gt;SharedModule</title>
<path fill="none" stroke="#000000" d="M2386.1037,-122.2458C2386.1037,-136.1772 2386.1037,-153 2386.1037,-153 2386.1037,-153 2331.3839,-153 2331.3839,-153"/>
<polygon fill="#000000" stroke="#000000" points="2331.3839,-149.5001 2321.3839,-153 2331.3839,-156.5001 2331.3839,-149.5001"/>
</g>
<!-- MatChipsModule -->
<g id="node14" class="node">
<title>MatChipsModule</title>
<polygon fill="#8dd3c7" stroke="#000000" points="2329.2716,-122 2326.2716,-126 2305.2716,-126 2302.2716,-122 2214.7284,-122 2214.7284,-86 2329.2716,-86 2329.2716,-122"/>
<text text-anchor="middle" x="2272" y="-99.8" font-family="Times,serif" font-size="14.00" fill="#000000">MatChipsModule</text>
</g>
<!-- MatChipsModule&#45;&gt;SharedModule -->
<g id="edge13" class="edge">
<title>MatChipsModule&#45;&gt;SharedModule</title>
<path fill="none" stroke="#000000" d="M2272,-122.1061C2272,-122.1061 2272,-140.991 2272,-140.991"/>
<polygon fill="#000000" stroke="#000000" points="2268.5001,-140.9909 2272,-150.991 2275.5001,-140.991 2268.5001,-140.9909"/>
</g>
<!-- MatCardModule -->
<g id="node15" class="node">
<title>MatCardModule</title>
<polygon fill="#8dd3c7" stroke="#000000" points="2196.8118,-122 2193.8118,-126 2172.8118,-126 2169.8118,-122 2087.1882,-122 2087.1882,-86 2196.8118,-86 2196.8118,-122"/>
<text text-anchor="middle" x="2142" y="-99.8" font-family="Times,serif" font-size="14.00" fill="#000000">MatCardModule</text>
</g>
<!-- MatCardModule&#45;&gt;SharedModule -->
<g id="edge14" class="edge">
<title>MatCardModule&#45;&gt;SharedModule</title>
<path fill="none" stroke="#000000" d="M2158.4208,-122.2458C2158.4208,-136.1772 2158.4208,-153 2158.4208,-153 2158.4208,-153 2212.5129,-153 2212.5129,-153"/>
<polygon fill="#000000" stroke="#000000" points="2212.5129,-156.5001 2222.5129,-153 2212.5129,-149.5001 2212.5129,-156.5001"/>
</g>
<!-- MatSidenavModule -->
<g id="node16" class="node">
<title>MatSidenavModule</title>
<polygon fill="#8dd3c7" stroke="#000000" points="2069.7022,-122 2066.7022,-126 2045.7022,-126 2042.7022,-122 1942.2978,-122 1942.2978,-86 2069.7022,-86 2069.7022,-122"/>
<text text-anchor="middle" x="2006" y="-99.8" font-family="Times,serif" font-size="14.00" fill="#000000">MatSidenavModule</text>
</g>
<!-- MatSidenavModule&#45;&gt;SharedModule -->
<g id="edge15" class="edge">
<title>MatSidenavModule&#45;&gt;SharedModule</title>
<path fill="none" stroke="#000000" d="M2055.1392,-122.0511C2055.1392,-136.373 2055.1392,-154 2055.1392,-154 2055.1392,-154 2212.5196,-154 2212.5196,-154"/>
<polygon fill="#000000" stroke="#000000" points="2212.5196,-157.5001 2222.5196,-154 2212.5195,-150.5001 2212.5196,-157.5001"/>
</g>
<!-- MatCheckboxModule -->
<g id="node17" class="node">
<title>MatCheckboxModule</title>
<polygon fill="#8dd3c7" stroke="#000000" points="1924.3655,-122 1921.3655,-126 1900.3655,-126 1897.3655,-122 1785.6345,-122 1785.6345,-86 1924.3655,-86 1924.3655,-122"/>
<text text-anchor="middle" x="1855" y="-99.8" font-family="Times,serif" font-size="14.00" fill="#000000">MatCheckboxModule</text>
</g>
<!-- MatCheckboxModule&#45;&gt;SharedModule -->
<g id="edge16" class="edge">
<title>MatCheckboxModule&#45;&gt;SharedModule</title>
<path fill="none" stroke="#000000" d="M1920.9224,-122.1243C1920.9224,-136.7832 1920.9224,-155 1920.9224,-155 1920.9224,-155 2212.4438,-155 2212.4438,-155"/>
<polygon fill="#000000" stroke="#000000" points="2212.4438,-158.5001 2222.4438,-155 2212.4437,-151.5001 2212.4438,-158.5001"/>
</g>
<!-- MatListModule -->
<g id="node18" class="node">
<title>MatListModule</title>
<polygon fill="#8dd3c7" stroke="#000000" points="1767.8781,-122 1764.8781,-126 1743.8781,-126 1740.8781,-122 1664.1219,-122 1664.1219,-86 1767.8781,-86 1767.8781,-122"/>
<text text-anchor="middle" x="1716" y="-99.8" font-family="Times,serif" font-size="14.00" fill="#000000">MatListModule</text>
</g>
<!-- MatListModule&#45;&gt;SharedModule -->
<g id="edge17" class="edge">
<title>MatListModule&#45;&gt;SharedModule</title>
<path fill="none" stroke="#000000" d="M1733.313,-122.2396C1733.313,-137.5706 1733.313,-157 1733.313,-157 1733.313,-157 2212.7671,-157 2212.7671,-157"/>
<polygon fill="#000000" stroke="#000000" points="2212.7671,-160.5001 2222.7671,-157 2212.767,-153.5001 2212.7671,-160.5001"/>
</g>
<!-- MatMenuModule -->
<g id="node19" class="node">
<title>MatMenuModule</title>
<polygon fill="#8dd3c7" stroke="#000000" points="1646.2591,-122 1643.2591,-126 1622.2591,-126 1619.2591,-122 1531.7409,-122 1531.7409,-86 1646.2591,-86 1646.2591,-122"/>
<text text-anchor="middle" x="1589" y="-99.8" font-family="Times,serif" font-size="14.00" fill="#000000">MatMenuModule</text>
</g>
<!-- MatMenuModule&#45;&gt;SharedModule -->
<g id="edge18" class="edge">
<title>MatMenuModule&#45;&gt;SharedModule</title>
<path fill="none" stroke="#000000" d="M1639.6839,-122.2819C1639.6839,-137.9478 1639.6839,-158 1639.6839,-158 1639.6839,-158 2212.6466,-158 2212.6466,-158"/>
<polygon fill="#000000" stroke="#000000" points="2212.6466,-161.5001 2222.6466,-158 2212.6466,-154.5001 2212.6466,-161.5001"/>
</g>
<!-- MatIconModule -->
<g id="node20" class="node">
<title>MatIconModule</title>
<polygon fill="#8dd3c7" stroke="#000000" points="1513.4748,-122 1510.4748,-126 1489.4748,-126 1486.4748,-122 1406.5252,-122 1406.5252,-86 1513.4748,-86 1513.4748,-122"/>
<text text-anchor="middle" x="1460" y="-99.8" font-family="Times,serif" font-size="14.00" fill="#000000">MatIconModule</text>
</g>
<!-- MatIconModule&#45;&gt;SharedModule -->
<g id="edge19" class="edge">
<title>MatIconModule&#45;&gt;SharedModule</title>
<path fill="none" stroke="#000000" d="M1487.2348,-122.0091C1487.2348,-138.0494 1487.2348,-159 1487.2348,-159 1487.2348,-159 2212.6121,-159 2212.6121,-159"/>
<polygon fill="#000000" stroke="#000000" points="2212.6122,-162.5001 2222.6121,-159 2212.6121,-155.5001 2212.6122,-162.5001"/>
</g>
<!-- MatTooltipModule -->
<g id="node21" class="node">
<title>MatTooltipModule</title>
<polygon fill="#8dd3c7" stroke="#000000" points="1388.8244,-122 1385.8244,-126 1364.8244,-126 1361.8244,-122 1265.1756,-122 1265.1756,-86 1388.8244,-86 1388.8244,-122"/>
<text text-anchor="middle" x="1327" y="-99.8" font-family="Times,serif" font-size="14.00" fill="#000000">MatTooltipModule</text>
</g>
<!-- MatTooltipModule&#45;&gt;SharedModule -->
<g id="edge20" class="edge">
<title>MatTooltipModule&#45;&gt;SharedModule</title>
<path fill="none" stroke="#000000" d="M1351.7404,-122.0352C1351.7404,-138.7344 1351.7404,-161 1351.7404,-161 1351.7404,-161 2212.5228,-161 2212.5228,-161"/>
<polygon fill="#000000" stroke="#000000" points="2212.5229,-164.5001 2222.5228,-161 2212.5228,-157.5001 2212.5229,-164.5001"/>
</g>
<!-- MatSnackBarModule -->
<g id="node22" class="node">
<title>MatSnackBarModule</title>
<polygon fill="#8dd3c7" stroke="#000000" points="1247.024,-122 1244.024,-126 1223.024,-126 1220.024,-122 1110.976,-122 1110.976,-86 1247.024,-86 1247.024,-122"/>
<text text-anchor="middle" x="1179" y="-99.8" font-family="Times,serif" font-size="14.00" fill="#000000">MatSnackBarModule</text>
</g>
<!-- MatSnackBarModule&#45;&gt;SharedModule -->
<g id="edge21" class="edge">
<title>MatSnackBarModule&#45;&gt;SharedModule</title>
<path fill="none" stroke="#000000" d="M1212.3712,-122.0336C1212.3712,-139.0597 1212.3712,-162 1212.3712,-162 1212.3712,-162 2212.6657,-162 2212.6657,-162"/>
<polygon fill="#000000" stroke="#000000" points="2212.6657,-165.5001 2222.6657,-162 2212.6656,-158.5001 2212.6657,-165.5001"/>
</g>
<!-- MatSlideToggleModule -->
<g id="node23" class="node">
<title>MatSlideToggleModule</title>
<polygon fill="#8dd3c7" stroke="#000000" points="1092.0365,-122 1089.0365,-126 1068.0365,-126 1065.0365,-122 941.9635,-122 941.9635,-86 1092.0365,-86 1092.0365,-122"/>
<text text-anchor="middle" x="1017" y="-99.8" font-family="Times,serif" font-size="14.00" fill="#000000">MatSlideToggleModule</text>
</g>
<!-- MatSlideToggleModule&#45;&gt;SharedModule -->
<g id="edge22" class="edge">
<title>MatSlideToggleModule&#45;&gt;SharedModule</title>
<path fill="none" stroke="#000000" d="M1052.3824,-122.0225C1052.3824,-139.3734 1052.3824,-163 1052.3824,-163 1052.3824,-163 2212.679,-163 2212.679,-163"/>
<polygon fill="#000000" stroke="#000000" points="2212.679,-166.5001 2222.679,-163 2212.679,-159.5001 2212.679,-166.5001"/>
</g>
<!-- MatDividerModule -->
<g id="node24" class="node">
<title>MatDividerModule</title>
<polygon fill="#8dd3c7" stroke="#000000" points="923.3627,-122 920.3627,-126 899.3627,-126 896.3627,-122 798.6373,-122 798.6373,-86 923.3627,-86 923.3627,-122"/>
<text text-anchor="middle" x="861" y="-99.8" font-family="Times,serif" font-size="14.00" fill="#000000">MatDividerModule</text>
</g>
<!-- MatDividerModule&#45;&gt;SharedModule -->
<g id="edge23" class="edge">
<title>MatDividerModule&#45;&gt;SharedModule</title>
<path fill="none" stroke="#000000" d="M884.3799,-122.302C884.3799,-140.2699 884.3799,-165 884.3799,-165 884.3799,-165 2212.6139,-165 2212.6139,-165"/>
<polygon fill="#000000" stroke="#000000" points="2212.6139,-168.5001 2222.6139,-165 2212.6138,-161.5001 2212.6139,-168.5001"/>
</g>
<!-- MatExpansionModule -->
<g id="node25" class="node">
<title>MatExpansionModule</title>
<polygon fill="#8dd3c7" stroke="#000000" points="780.7021,-122 777.7021,-126 756.7021,-126 753.7021,-122 639.2979,-122 639.2979,-86 780.7021,-86 780.7021,-122"/>
<text text-anchor="middle" x="710" y="-99.8" font-family="Times,serif" font-size="14.00" fill="#000000">MatExpansionModule</text>
</g>
<!-- MatExpansionModule&#45;&gt;SharedModule -->
<g id="edge24" class="edge">
<title>MatExpansionModule&#45;&gt;SharedModule</title>
<path fill="none" stroke="#000000" d="M731.625,-122.2667C731.625,-140.5552 731.625,-166 731.625,-166 731.625,-166 2212.4936,-166 2212.4936,-166"/>
<polygon fill="#000000" stroke="#000000" points="2212.4936,-169.5001 2222.4936,-166 2212.4935,-162.5001 2212.4936,-169.5001"/>
</g>
<!-- FontAwesomeModule -->
<g id="node26" class="node">
<title>FontAwesomeModule</title>
<polygon fill="#8dd3c7" stroke="#000000" points="621.7007,-122 618.7007,-126 597.7007,-126 594.7007,-122 480.2993,-122 480.2993,-86 621.7007,-86 621.7007,-122"/>
<text text-anchor="middle" x="551" y="-99.8" font-family="Times,serif" font-size="14.00" fill="#000000">FontAwesomeModule</text>
</g>
<!-- FontAwesomeModule&#45;&gt;SharedModule -->
<g id="edge25" class="edge">
<title>FontAwesomeModule&#45;&gt;SharedModule</title>
<path fill="none" stroke="#000000" d="M570.625,-122.2222C570.625,-140.8285 570.625,-167 570.625,-167 570.625,-167 2212.4602,-167 2212.4602,-167"/>
<polygon fill="#000000" stroke="#000000" points="2212.4603,-170.5001 2222.4602,-167 2212.4602,-163.5001 2212.4603,-170.5001"/>
</g>
</g>
</svg>
