<?xml version="1.0" encoding="UTF-8" standalone="no"?>
<!DOCTYPE svg PUBLIC "-//W3C//DTD SVG 1.1//EN"
 "http://www.w3.org/Graphics/SVG/1.1/DTD/svg11.dtd">
<!-- Generated by graphviz version 2.40.1 (20161225.0304)
 -->
<!-- Title: dependencies Pages: 1 -->
<svg width="2873pt" height="284pt"
 viewBox="0.00 0.00 2873.00 284.00" xmlns="http://www.w3.org/2000/svg" xmlns:xlink="http://www.w3.org/1999/xlink">
<g id="graph0" class="graph" transform="scale(1 1) rotate(0) translate(4 280)">
<title>dependencies</title>
<polygon fill="#ffffff" stroke="transparent" points="-4,4 -4,-280 2869,-280 2869,4 -4,4"/>
<text text-anchor="start" x="1411.5091" y="-42.4" font-family="sans-serif" font-weight="bold" font-size="14.00" fill="#000000">Legend</text>
<polygon fill="#ffffb3" stroke="transparent" points="1198.5,-10 1198.5,-30 1218.5,-30 1218.5,-10 1198.5,-10"/>
<text text-anchor="start" x="1222.129" y="-15.4" font-family="sans-serif" font-size="14.00" fill="#000000"> &#160;Declarations</text>
<polygon fill="#8dd3c7" stroke="transparent" points="1311.5,-10 1311.5,-30 1331.5,-30 1331.5,-10 1311.5,-10"/>
<text text-anchor="start" x="1335.2251" y="-15.4" font-family="sans-serif" font-size="14.00" fill="#000000"> &#160;Module</text>
<polygon fill="#80b1d3" stroke="transparent" points="1397.5,-10 1397.5,-30 1417.5,-30 1417.5,-10 1397.5,-10"/>
<text text-anchor="start" x="1421.2812" y="-15.4" font-family="sans-serif" font-size="14.00" fill="#000000"> &#160;Bootstrap</text>
<polygon fill="#fdb462" stroke="transparent" points="1494.5,-10 1494.5,-30 1514.5,-30 1514.5,-10 1494.5,-10"/>
<text text-anchor="start" x="1518.1732" y="-15.4" font-family="sans-serif" font-size="14.00" fill="#000000"> &#160;Providers</text>
<polygon fill="#fb8072" stroke="transparent" points="1590.5,-10 1590.5,-30 1610.5,-30 1610.5,-10 1590.5,-10"/>
<text text-anchor="start" x="1614.2258" y="-15.4" font-family="sans-serif" font-size="14.00" fill="#000000"> &#160;Exports</text>
<g id="clust1" class="cluster">
<title>cluster_CoreModule</title>
<polygon fill="none" stroke="#000000" stroke-dasharray="1,5" points="8,-70 8,-268 2857,-268 2857,-70 8,-70"/>
</g>
<g id="clust3" class="cluster">
<title>cluster_CoreModule_imports</title>
<polygon fill="none" stroke="#000000" points="1654,-78 1654,-130 2849,-130 2849,-78 1654,-78"/>
</g>
<g id="clust4" class="cluster">
<title>cluster_CoreModule_exports</title>
<polygon fill="none" stroke="#000000" points="1900,-208 1900,-260 2032,-260 2032,-208 1900,-208"/>
</g>
<g id="clust6" class="cluster">
<title>cluster_CoreModule_providers</title>
<polygon fill="none" stroke="#000000" points="16,-78 16,-130 1646,-130 1646,-78 16,-78"/>
</g>
<!-- CommonModule -->
<g id="node1" class="node">
<title>CommonModule</title>
<polygon fill="#8dd3c7" stroke="#000000" points="2840.6681,-122 2837.6681,-126 2816.6681,-126 2813.6681,-122 2729.3319,-122 2729.3319,-86 2840.6681,-86 2840.6681,-122"/>
<text text-anchor="middle" x="2785" y="-99.8" font-family="Times,serif" font-size="14.00" fill="#000000">CommonModule</text>
</g>
<!-- CoreModule -->
<g id="node8" class="node">
<title>CoreModule</title>
<polygon fill="#8dd3c7" stroke="#000000" points="2009.2619,-187 2006.2619,-191 1985.2619,-191 1982.2619,-187 1922.7381,-187 1922.7381,-151 2009.2619,-151 2009.2619,-187"/>
<text text-anchor="middle" x="1966" y="-164.8" font-family="Times,serif" font-size="14.00" fill="#000000">CoreModule</text>
</g>
<!-- CommonModule&#45;&gt;CoreModule -->
<g id="edge1" class="edge">
<title>CommonModule&#45;&gt;CoreModule</title>
<path fill="none" stroke="#000000" d="M2785,-122.0109C2785,-144.4852 2785,-180 2785,-180 2785,-180 2019.4547,-180 2019.4547,-180"/>
<polygon fill="#000000" stroke="#000000" points="2019.4548,-176.5001 2009.4547,-180 2019.4547,-183.5001 2019.4548,-176.5001"/>
</g>
<!-- HttpClientModule -->
<g id="node2" class="node">
<title>HttpClientModule</title>
<polygon fill="#8dd3c7" stroke="#000000" points="2711.1611,-122 2708.1611,-126 2687.1611,-126 2684.1611,-122 2592.8389,-122 2592.8389,-86 2711.1611,-86 2711.1611,-122"/>
<text text-anchor="middle" x="2652" y="-99.8" font-family="Times,serif" font-size="14.00" fill="#000000">HttpClientModule</text>
</g>
<!-- HttpClientModule&#45;&gt;CoreModule -->
<g id="edge2" class="edge">
<title>HttpClientModule&#45;&gt;CoreModule</title>
<path fill="none" stroke="#000000" d="M2652,-122.1289C2652,-142.5724 2652,-173 2652,-173 2652,-173 2019.4328,-173 2019.4328,-173"/>
<polygon fill="#000000" stroke="#000000" points="2019.4328,-169.5001 2009.4328,-173 2019.4328,-176.5001 2019.4328,-169.5001"/>
</g>
<!-- StoreModule.forRoot(args) -->
<g id="node3" class="node">
<title>StoreModule.forRoot(args)</title>
<polygon fill="#8dd3c7" stroke="#000000" points="2574.2877,-122 2571.2877,-126 2550.2877,-126 2547.2877,-122 2405.7123,-122 2405.7123,-86 2574.2877,-86 2574.2877,-122"/>
<text text-anchor="middle" x="2490" y="-99.8" font-family="Times,serif" font-size="14.00" fill="#000000">StoreModule.forRoot(args)</text>
</g>
<!-- StoreModule.forRoot(args)&#45;&gt;CoreModule -->
<g id="edge3" class="edge">
<title>StoreModule.forRoot(args)&#45;&gt;CoreModule</title>
<path fill="none" stroke="#000000" d="M2490,-122.2667C2490,-140.5552 2490,-166 2490,-166 2490,-166 2019.3269,-166 2019.3269,-166"/>
<polygon fill="#000000" stroke="#000000" points="2019.327,-162.5001 2009.3269,-166 2019.3269,-169.5001 2019.327,-162.5001"/>
</g>
<!-- StoreRouterConnectingModule.forRoot() -->
<g id="node4" class="node">
<title>StoreRouterConnectingModule.forRoot()</title>
<polygon fill="#8dd3c7" stroke="#000000" points="2388.1172,-122 2385.1172,-126 2364.1172,-126 2361.1172,-122 2139.8828,-122 2139.8828,-86 2388.1172,-86 2388.1172,-122"/>
<text text-anchor="middle" x="2264" y="-99.8" font-family="Times,serif" font-size="14.00" fill="#000000">StoreRouterConnectingModule.forRoot()</text>
</g>
<!-- StoreRouterConnectingModule.forRoot()&#45;&gt;CoreModule -->
<g id="edge4" class="edge">
<title>StoreRouterConnectingModule.forRoot()&#45;&gt;CoreModule</title>
<path fill="none" stroke="#000000" d="M2264,-122.0091C2264,-138.0494 2264,-159 2264,-159 2264,-159 2019.3318,-159 2019.3318,-159"/>
<polygon fill="#000000" stroke="#000000" points="2019.3318,-155.5001 2009.3318,-159 2019.3317,-162.5001 2019.3318,-155.5001"/>
</g>
<!-- EffectsModule.forRoot(args) -->
<g id="node5" class="node">
<title>EffectsModule.forRoot(args)</title>
<polygon fill="#8dd3c7" stroke="#000000" points="2122.3774,-122 2119.3774,-126 2098.3774,-126 2095.3774,-122 1943.6226,-122 1943.6226,-86 2122.3774,-86 2122.3774,-122"/>
<text text-anchor="middle" x="2033" y="-99.8" font-family="Times,serif" font-size="14.00" fill="#000000">EffectsModule.forRoot(args)</text>
</g>
<!-- EffectsModule.forRoot(args)&#45;&gt;CoreModule -->
<g id="edge5" class="edge">
<title>EffectsModule.forRoot(args)&#45;&gt;CoreModule</title>
<path fill="none" stroke="#000000" d="M1976.4711,-122.1061C1976.4711,-122.1061 1976.4711,-140.991 1976.4711,-140.991"/>
<polygon fill="#000000" stroke="#000000" points="1972.9711,-140.9909 1976.4711,-150.991 1979.9711,-140.991 1972.9711,-140.9909"/>
</g>
<!-- { &#160;} -->
<g id="node6" class="node">
<title>{ &#160;}</title>
<polygon fill="#8dd3c7" stroke="#000000" points="1926,-122 1923,-126 1902,-126 1899,-122 1872,-122 1872,-86 1926,-86 1926,-122"/>
<text text-anchor="middle" x="1899" y="-99.8" font-family="Times,serif" font-size="14.00" fill="#000000">{ &#160;}</text>
</g>
<!-- { &#160;}&#45;&gt;CoreModule -->
<g id="edge6" class="edge">
<title>{ &#160;}&#45;&gt;CoreModule</title>
<path fill="none" stroke="#000000" d="M1915.5265,-122.2479C1915.5265,-145.0179 1915.5265,-181 1915.5265,-181 1915.5265,-181 1916.2283,-181 1916.2283,-181"/>
<polygon fill="#000000" stroke="#000000" points="1912.5446,-184.5002 1922.5446,-181 1912.5445,-177.5002 1912.5446,-184.5002"/>
</g>
<!-- TranslateModule.forRoot(args) -->
<g id="node7" class="node">
<title>TranslateModule.forRoot(args)</title>
<polygon fill="#8dd3c7" stroke="#000000" points="1853.8223,-122 1850.8223,-126 1829.8223,-126 1826.8223,-122 1662.1777,-122 1662.1777,-86 1853.8223,-86 1853.8223,-122"/>
<text text-anchor="middle" x="1758" y="-99.8" font-family="Times,serif" font-size="14.00" fill="#000000">TranslateModule.forRoot(args)</text>
</g>
<!-- TranslateModule.forRoot(args)&#45;&gt;CoreModule -->
<g id="edge7" class="edge">
<title>TranslateModule.forRoot(args)&#45;&gt;CoreModule</title>
<path fill="none" stroke="#000000" d="M1758,-122.2396C1758,-137.5706 1758,-157 1758,-157 1758,-157 1912.6496,-157 1912.6496,-157"/>
<polygon fill="#000000" stroke="#000000" points="1912.6496,-160.5001 1922.6496,-157 1912.6495,-153.5001 1912.6496,-160.5001"/>
</g>
<!-- TranslateModule  -->
<g id="node9" class="node">
<title>TranslateModule </title>
<polygon fill="#fb8072" stroke="#000000" points="2023.6327,-252 1908.3673,-252 1908.3673,-216 2023.6327,-216 2023.6327,-252"/>
<text text-anchor="middle" x="1966" y="-229.8" font-family="Times,serif" font-size="14.00" fill="#000000">TranslateModule </text>
</g>
<!-- CoreModule&#45;&gt;TranslateModule  -->
<g id="edge8" class="edge">
<title>CoreModule&#45;&gt;TranslateModule </title>
<path fill="none" stroke="#000000" stroke-dasharray="5,2" d="M1966,-187.1061C1966,-187.1061 1966,-205.991 1966,-205.991"/>
<polygon fill="#000000" stroke="#000000" points="1962.5001,-205.9909 1966,-215.991 1969.5001,-205.991 1962.5001,-205.9909"/>
</g>
<!-- { provide: HTTP_INTERCEPTORS, useClass: HttpErrorInterceptor, multi: &#160;} -->
<g id="node10" class="node">
<title>{ provide: HTTP_INTERCEPTORS, useClass: HttpErrorInterceptor, multi: &#160;}</title>
<ellipse fill="#fdb462" stroke="#000000" cx="1325" cy="-104" rx="313.3875" ry="18"/>
<text text-anchor="middle" x="1325" y="-99.8" font-family="Times,serif" font-size="14.00" fill="#000000">{ provide: HTTP_INTERCEPTORS, useClass: HttpErrorInterceptor, multi: &#160;}</text>
</g>
<!-- { provide: HTTP_INTERCEPTORS, useClass: HttpErrorInterceptor, multi: &#160;}&#45;&gt;CoreModule -->
<g id="edge9" class="edge">
<title>{ provide: HTTP_INTERCEPTORS, useClass: HttpErrorInterceptor, multi: &#160;}&#45;&gt;CoreModule</title>
<path fill="none" stroke="#000000" d="M1325,-122.0225C1325,-139.3734 1325,-163 1325,-163 1325,-163 1912.6964,-163 1912.6964,-163"/>
<polygon fill="#000000" stroke="#000000" points="1912.6965,-166.5001 1922.6964,-163 1912.6964,-159.5001 1912.6965,-166.5001"/>
</g>
<!-- { provide: ErrorHandler, useClass: AppErrorHandler } -->
<g id="node11" class="node">
<title>{ provide: ErrorHandler, useClass: AppErrorHandler }</title>
<ellipse fill="#fdb462" stroke="#000000" cx="771" cy="-104" rx="223.0457" ry="18"/>
<text text-anchor="middle" x="771" y="-99.8" font-family="Times,serif" font-size="14.00" fill="#000000">{ provide: ErrorHandler, useClass: AppErrorHandler }</text>
</g>
<!-- { provide: ErrorHandler, useClass: AppErrorHandler }&#45;&gt;CoreModule -->
<g id="edge10" class="edge">
<title>{ provide: ErrorHandler, useClass: AppErrorHandler }&#45;&gt;CoreModule</title>
<path fill="none" stroke="#000000" d="M771,-122.1061C771,-141.3391 771,-169 771,-169 771,-169 1912.4084,-169 1912.4084,-169"/>
<polygon fill="#000000" stroke="#000000" points="1912.4084,-172.5001 1922.4084,-169 1912.4083,-165.5001 1912.4084,-172.5001"/>
</g>
<!-- { provide: RouterStateSerializer, useClass: CustomSerializer } -->
<g id="node12" class="node">
<title>{ provide: RouterStateSerializer, useClass: CustomSerializer }</title>
<ellipse fill="#fdb462" stroke="#000000" cx="277" cy="-104" rx="253.1622" ry="18"/>
<text text-anchor="middle" x="277" y="-99.8" font-family="Times,serif" font-size="14.00" fill="#000000">{ provide: RouterStateSerializer, useClass: CustomSerializer }</text>
</g>
<!-- { provide: RouterStateSerializer, useClass: CustomSerializer }&#45;&gt;CoreModule -->
<g id="edge11" class="edge">
<title>{ provide: RouterStateSerializer, useClass: CustomSerializer }&#45;&gt;CoreModule</title>
<path fill="none" stroke="#000000" d="M277,-122.2843C277,-143.3211 277,-175 277,-175 277,-175 1912.5519,-175 1912.5519,-175"/>
<polygon fill="#000000" stroke="#000000" points="1912.5519,-178.5001 1922.5519,-175 1912.5519,-171.5001 1912.5519,-178.5001"/>
</g>
</g>
</svg>
