<?xml version="1.0" encoding="UTF-8" standalone="no"?>
<!DOCTYPE svg PUBLIC "-//W3C//DTD SVG 1.1//EN"
 "http://www.w3.org/Graphics/SVG/1.1/DTD/svg11.dtd">
<!-- Generated by graphviz version 2.40.1 (20161225.0304)
 -->
<!-- Title: dependencies Pages: 1 -->
<svg width="5930pt" height="366pt"
 viewBox="0.00 0.00 5930.00 366.00" xmlns="http://www.w3.org/2000/svg" xmlns:xlink="http://www.w3.org/1999/xlink">
<g id="graph0" class="graph" transform="scale(1 1) rotate(0) translate(4 362)">
<title>dependencies</title>
<polygon fill="#ffffff" stroke="transparent" points="-4,4 -4,-362 5926,-362 5926,4 -4,4"/>
<text text-anchor="start" x="2940.0091" y="-42.4" font-family="sans-serif" font-weight="bold" font-size="14.00" fill="#000000">Legend</text>
<polygon fill="#ffffb3" stroke="transparent" points="2727,-10 2727,-30 2747,-30 2747,-10 2727,-10"/>
<text text-anchor="start" x="2750.629" y="-15.4" font-family="sans-serif" font-size="14.00" fill="#000000"> &#160;Declarations</text>
<polygon fill="#8dd3c7" stroke="transparent" points="2840,-10 2840,-30 2860,-30 2860,-10 2840,-10"/>
<text text-anchor="start" x="2863.7251" y="-15.4" font-family="sans-serif" font-size="14.00" fill="#000000"> &#160;Module</text>
<polygon fill="#80b1d3" stroke="transparent" points="2926,-10 2926,-30 2946,-30 2946,-10 2926,-10"/>
<text text-anchor="start" x="2949.7812" y="-15.4" font-family="sans-serif" font-size="14.00" fill="#000000"> &#160;Bootstrap</text>
<polygon fill="#fdb462" stroke="transparent" points="3023,-10 3023,-30 3043,-30 3043,-10 3023,-10"/>
<text text-anchor="start" x="3046.6732" y="-15.4" font-family="sans-serif" font-size="14.00" fill="#000000"> &#160;Providers</text>
<polygon fill="#fb8072" stroke="transparent" points="3119,-10 3119,-30 3139,-30 3139,-10 3119,-10"/>
<text text-anchor="start" x="3142.7258" y="-15.4" font-family="sans-serif" font-size="14.00" fill="#000000"> &#160;Exports</text>
<g id="clust1" class="cluster">
<title>cluster_AboutModule</title>
<polygon fill="none" stroke="#000000" stroke-dasharray="1,5" points="8,-146 8,-274 436,-274 436,-146 8,-146"/>
</g>
<g id="clust2" class="cluster">
<title>cluster_AboutModule_declarations</title>
<polygon fill="none" stroke="#000000" points="16,-154 16,-206 148,-206 148,-154 16,-154"/>
</g>
<g id="clust4" class="cluster">
<title>cluster_AboutModule_imports</title>
<polygon fill="none" stroke="#000000" points="156,-154 156,-206 428,-206 428,-154 156,-154"/>
</g>
<g id="clust14" class="cluster">
<title>cluster_AppModule</title>
<polygon fill="none" stroke="#000000" stroke-dasharray="1,5" points="1451,-146 1451,-350 1846,-350 1846,-146 1451,-146"/>
</g>
<g id="clust15" class="cluster">
<title>cluster_AppModule_declarations</title>
<polygon fill="none" stroke="#000000" points="1716,-154 1716,-206 1838,-206 1838,-154 1716,-154"/>
</g>
<g id="clust17" class="cluster">
<title>cluster_AppModule_imports</title>
<polygon fill="none" stroke="#000000" points="1459,-154 1459,-206 1708,-206 1708,-154 1459,-154"/>
</g>
<g id="clust19" class="cluster">
<title>cluster_AppModule_bootstrap</title>
<polygon fill="none" stroke="#000000" points="1516,-290 1516,-342 1640,-342 1640,-290 1516,-290"/>
</g>
<g id="clust27" class="cluster">
<title>cluster_CoreModule</title>
<polygon fill="none" stroke="#000000" stroke-dasharray="1,5" points="1403,-70 1403,-138 1617,-138 1617,-70 1403,-70"/>
</g>
<g id="clust32" class="cluster">
<title>cluster_CoreModule_providers</title>
<polygon fill="none" stroke="#000000" points="1411,-78 1411,-130 1609,-130 1609,-78 1411,-78"/>
</g>
<g id="clust33" class="cluster">
<title>cluster_ExamplesModule</title>
<polygon fill="none" stroke="#000000" stroke-dasharray="1,5" points="1854,-146 1854,-274 5140,-274 5140,-146 1854,-146"/>
</g>
<g id="clust34" class="cluster">
<title>cluster_ExamplesModule_declarations</title>
<polygon fill="none" stroke="#000000" points="2532,-154 2532,-206 5132,-206 5132,-154 2532,-154"/>
</g>
<g id="clust50" class="cluster">
<title>cluster_ExamplesModule_imports</title>
<polygon fill="none" stroke="#000000" points="2348,-154 2348,-206 2524,-206 2524,-154 2348,-154"/>
</g>
<g id="clust53" class="cluster">
<title>cluster_ExamplesModule_providers</title>
<polygon fill="none" stroke="#000000" points="1862,-154 1862,-206 2340,-206 2340,-154 1862,-154"/>
</g>
<g id="clust60" class="cluster">
<title>cluster_FeatureListModule</title>
<polygon fill="none" stroke="#000000" stroke-dasharray="1,5" points="5148,-146 5148,-274 5518,-274 5518,-146 5148,-146"/>
</g>
<g id="clust61" class="cluster">
<title>cluster_FeatureListModule_declarations</title>
<polygon fill="none" stroke="#000000" points="5348,-154 5348,-206 5510,-206 5510,-154 5348,-154"/>
</g>
<g id="clust63" class="cluster">
<title>cluster_FeatureListModule_imports</title>
<polygon fill="none" stroke="#000000" points="5156,-154 5156,-206 5340,-206 5340,-154 5156,-154"/>
</g>
<g id="clust73" class="cluster">
<title>cluster_SettingsModule</title>
<polygon fill="none" stroke="#000000" stroke-dasharray="1,5" points="5526,-146 5526,-274 5914,-274 5914,-146 5526,-146"/>
</g>
<g id="clust74" class="cluster">
<title>cluster_SettingsModule_declarations</title>
<polygon fill="none" stroke="#000000" points="5708,-154 5708,-206 5906,-206 5906,-154 5708,-154"/>
</g>
<g id="clust76" class="cluster">
<title>cluster_SettingsModule_imports</title>
<polygon fill="none" stroke="#000000" points="5534,-154 5534,-206 5700,-206 5700,-154 5534,-154"/>
</g>
<g id="clust86" class="cluster">
<title>cluster_SharedModule</title>
<polygon fill="none" stroke="#000000" stroke-dasharray="1,5" points="444,-214 444,-282 1443,-282 1443,-214 444,-214"/>
</g>
<g id="clust87" class="cluster">
<title>cluster_SharedModule_declarations</title>
<polygon fill="none" stroke="#000000" points="953,-222 953,-274 1435,-274 1435,-222 953,-222"/>
</g>
<g id="clust92" class="cluster">
<title>cluster_SharedModule_exports</title>
<polygon fill="none" stroke="#000000" points="452,-222 452,-274 945,-274 945,-222 452,-222"/>
</g>
<!-- AboutComponent -->
<g id="node1" class="node">
<title>AboutComponent</title>
<polygon fill="#ffffb3" stroke="#000000" points="140.3301,-198 23.6699,-198 23.6699,-162 140.3301,-162 140.3301,-198"/>
<text text-anchor="middle" x="82" y="-175.8" font-family="Times,serif" font-size="14.00" fill="#000000">AboutComponent</text>
</g>
<!-- AboutModule -->
<g id="node2" class="node">
<title>AboutModule</title>
<polygon fill="#8dd3c7" stroke="#000000" points="281.0481,-266 278.0481,-270 257.0481,-270 254.0481,-266 186.9519,-266 186.9519,-230 281.0481,-230 281.0481,-266"/>
<text text-anchor="middle" x="234" y="-243.8" font-family="Times,serif" font-size="14.00" fill="#000000">AboutModule</text>
</g>
<!-- AboutComponent&#45;&gt;AboutModule -->
<g id="edge1" class="edge">
<title>AboutComponent&#45;&gt;AboutModule</title>
<path fill="none" stroke="#000000" d="M82,-198.2228C82,-218.3652 82,-248 82,-248 82,-248 176.7395,-248 176.7395,-248"/>
<polygon fill="#000000" stroke="#000000" points="176.7395,-251.5001 186.7395,-248 176.7394,-244.5001 176.7395,-251.5001"/>
</g>
<!-- AboutRoutingModule -->
<g id="node3" class="node">
<title>AboutRoutingModule</title>
<polygon fill="#8dd3c7" stroke="#000000" points="303.6652,-198 300.6652,-202 279.6652,-202 276.6652,-198 164.3348,-198 164.3348,-162 303.6652,-162 303.6652,-198"/>
<text text-anchor="middle" x="234" y="-175.8" font-family="Times,serif" font-size="14.00" fill="#000000">AboutRoutingModule</text>
</g>
<!-- AboutRoutingModule&#45;&gt;AboutModule -->
<g id="edge2" class="edge">
<title>AboutRoutingModule&#45;&gt;AboutModule</title>
<path fill="none" stroke="#000000" d="M234,-198.2228C234,-198.2228 234,-219.7269 234,-219.7269"/>
<polygon fill="#000000" stroke="#000000" points="230.5001,-219.7269 234,-229.7269 237.5001,-219.727 230.5001,-219.7269"/>
</g>
<!-- SharedModule -->
<g id="node4" class="node">
<title>SharedModule</title>
<polygon fill="#8dd3c7" stroke="#000000" points="420.4231,-198 417.4231,-202 396.4231,-202 393.4231,-198 321.5769,-198 321.5769,-162 420.4231,-162 420.4231,-198"/>
<text text-anchor="middle" x="371" y="-175.8" font-family="Times,serif" font-size="14.00" fill="#000000">SharedModule</text>
</g>
<!-- SharedModule&#45;&gt;AboutModule -->
<g id="edge3" class="edge">
<title>SharedModule&#45;&gt;AboutModule</title>
<path fill="none" stroke="#000000" d="M387.4037,-198.2921C387.4037,-220.2057 387.4037,-254 387.4037,-254 387.4037,-254 291.2779,-254 291.2779,-254"/>
<polygon fill="#000000" stroke="#000000" points="291.2779,-250.5001 281.2779,-254 291.2779,-257.5001 291.2779,-250.5001"/>
</g>
<!-- AppModule -->
<g id="node6" class="node">
<title>AppModule</title>
<polygon fill="#8dd3c7" stroke="#000000" points="1619.6571,-266 1616.6571,-270 1595.6571,-270 1592.6571,-266 1536.3429,-266 1536.3429,-230 1619.6571,-230 1619.6571,-266"/>
<text text-anchor="middle" x="1578" y="-243.8" font-family="Times,serif" font-size="14.00" fill="#000000">AppModule</text>
</g>
<!-- SharedModule&#45;&gt;AppModule -->
<g id="edge7" class="edge">
<title>SharedModule&#45;&gt;AppModule</title>
<path fill="none" stroke="#000000" d="M420.37,-168C631.3674,-168 1446.6932,-168 1446.6932,-168 1446.6932,-168 1446.6932,-248 1446.6932,-248 1446.6932,-248 1526.0927,-248 1526.0927,-248"/>
<polygon fill="#000000" stroke="#000000" points="1526.0927,-251.5001 1536.0927,-248 1526.0927,-244.5001 1526.0927,-251.5001"/>
</g>
<!-- ExamplesModule -->
<g id="node26" class="node">
<title>ExamplesModule</title>
<polygon fill="#8dd3c7" stroke="#000000" points="3430.2577,-266 3427.2577,-270 3406.2577,-270 3403.2577,-266 3315.7423,-266 3315.7423,-230 3430.2577,-230 3430.2577,-266"/>
<text text-anchor="middle" x="3373" y="-243.8" font-family="Times,serif" font-size="14.00" fill="#000000">ExamplesModule</text>
</g>
<!-- SharedModule&#45;&gt;ExamplesModule -->
<g id="edge26" class="edge">
<title>SharedModule&#45;&gt;ExamplesModule</title>
<path fill="none" stroke="#000000" d="M338.1926,-198.0555C338.1926,-209.439 338.1926,-222 338.1926,-222 338.1926,-222 3334.5563,-222 3334.5563,-222 3334.5563,-222 3334.5563,-222.7942 3334.5563,-222.7942"/>
<polygon fill="#000000" stroke="#000000" points="3331.0565,-219.9421 3334.5563,-229.9421 3338.0565,-219.9422 3331.0565,-219.9421"/>
</g>
<!-- FeatureListModule -->
<g id="node32" class="node">
<title>FeatureListModule</title>
<polygon fill="#8dd3c7" stroke="#000000" points="5309.8062,-266 5306.8062,-270 5285.8062,-270 5282.8062,-266 5186.1938,-266 5186.1938,-230 5309.8062,-230 5309.8062,-266"/>
<text text-anchor="middle" x="5248" y="-243.8" font-family="Times,serif" font-size="14.00" fill="#000000">FeatureListModule</text>
</g>
<!-- SharedModule&#45;&gt;FeatureListModule -->
<g id="edge32" class="edge">
<title>SharedModule&#45;&gt;FeatureListModule</title>
<path fill="none" stroke="#000000" d="M354.5963,-198.1944C354.5963,-206.2782 354.5963,-214 354.5963,-214 354.5963,-214 5227.449,-214 5227.449,-214 5227.449,-214 5227.449,-219.8056 5227.449,-219.8056"/>
<polygon fill="#000000" stroke="#000000" points="5223.9491,-219.8055 5227.449,-229.8056 5230.9491,-219.8056 5223.9491,-219.8055"/>
</g>
<!-- SettingsModule -->
<g id="node35" class="node">
<title>SettingsModule</title>
<polygon fill="#8dd3c7" stroke="#000000" points="5669.1639,-266 5666.1639,-270 5645.1639,-270 5642.1639,-266 5564.8361,-266 5564.8361,-230 5669.1639,-230 5669.1639,-266"/>
<text text-anchor="middle" x="5617" y="-243.8" font-family="Times,serif" font-size="14.00" fill="#000000">SettingsModule</text>
</g>
<!-- SharedModule&#45;&gt;SettingsModule -->
<g id="edge35" class="edge">
<title>SharedModule&#45;&gt;SettingsModule</title>
<path fill="none" stroke="#000000" d="M371,-198.0579C371,-202.4945 371,-206 371,-206 371,-206 5599.5561,-206 5599.5561,-206 5599.5561,-206 5599.5561,-219.9445 5599.5561,-219.9445"/>
<polygon fill="#000000" stroke="#000000" points="5596.0562,-219.9444 5599.5561,-229.9445 5603.0562,-219.9445 5596.0562,-219.9444"/>
</g>
<!-- BigInputActionComponent  -->
<g id="node40" class="node">
<title>BigInputActionComponent </title>
<polygon fill="#fb8072" stroke="#000000" points="785.2134,-266 612.7866,-266 612.7866,-230 785.2134,-230 785.2134,-266"/>
<text text-anchor="middle" x="699" y="-243.8" font-family="Times,serif" font-size="14.00" fill="#000000">BigInputActionComponent </text>
</g>
<!-- SharedModule&#45;&gt;BigInputActionComponent  -->
<g id="edge39" class="edge">
<title>SharedModule&#45;&gt;BigInputActionComponent </title>
<path fill="none" stroke="#000000" stroke-dasharray="5,2" d="M420.46,-193C512.0898,-193 699,-193 699,-193 699,-193 699,-219.9909 699,-219.9909"/>
<polygon fill="#000000" stroke="#000000" points="695.5001,-219.9909 699,-229.9909 702.5001,-219.991 695.5001,-219.9909"/>
</g>
<!-- BigInputComponent  -->
<g id="node41" class="node">
<title>BigInputComponent </title>
<polygon fill="#fb8072" stroke="#000000" points="594.1114,-266 459.8886,-266 459.8886,-230 594.1114,-230 594.1114,-266"/>
<text text-anchor="middle" x="527" y="-243.8" font-family="Times,serif" font-size="14.00" fill="#000000">BigInputComponent </text>
</g>
<!-- SharedModule&#45;&gt;BigInputComponent  -->
<g id="edge40" class="edge">
<title>SharedModule&#45;&gt;BigInputComponent </title>
<path fill="none" stroke="#000000" stroke-dasharray="5,2" d="M403.8074,-198.2667C403.8074,-216.5552 403.8074,-242 403.8074,-242 403.8074,-242 449.6366,-242 449.6366,-242"/>
<polygon fill="#000000" stroke="#000000" points="449.6366,-245.5001 459.6366,-242 449.6365,-238.5001 449.6366,-245.5001"/>
</g>
<!-- RtlSupportDirective  -->
<g id="node42" class="node">
<title>RtlSupportDirective </title>
<polygon fill="#fb8072" stroke="#000000" points="936.5344,-266 803.4656,-266 803.4656,-230 936.5344,-230 936.5344,-266"/>
<text text-anchor="middle" x="870" y="-243.8" font-family="Times,serif" font-size="14.00" fill="#000000">RtlSupportDirective </text>
</g>
<!-- SharedModule&#45;&gt;RtlSupportDirective  -->
<g id="edge41" class="edge">
<title>SharedModule&#45;&gt;RtlSupportDirective </title>
<path fill="none" stroke="#000000" stroke-dasharray="5,2" d="M420.2117,-188C546.1018,-188 870,-188 870,-188 870,-188 870,-219.998 870,-219.998"/>
<polygon fill="#000000" stroke="#000000" points="866.5001,-219.998 870,-229.998 873.5001,-219.9981 866.5001,-219.998"/>
</g>
<!-- AppComponent -->
<g id="node5" class="node">
<title>AppComponent</title>
<polygon fill="#ffffb3" stroke="#000000" points="1829.9399,-198 1724.0601,-198 1724.0601,-162 1829.9399,-162 1829.9399,-198"/>
<text text-anchor="middle" x="1777" y="-175.8" font-family="Times,serif" font-size="14.00" fill="#000000">AppComponent</text>
</g>
<!-- AppComponent&#45;&gt;AppModule -->
<g id="edge4" class="edge">
<title>AppComponent&#45;&gt;AppModule</title>
<path fill="none" stroke="#000000" d="M1777,-198.0098C1777,-222.4207 1777,-263 1777,-263 1777,-263 1629.7169,-263 1629.7169,-263"/>
<polygon fill="#000000" stroke="#000000" points="1629.717,-259.5001 1619.7169,-263 1629.7169,-266.5001 1629.717,-259.5001"/>
</g>
<!-- AppComponent  -->
<g id="node9" class="node">
<title>AppComponent </title>
<polygon fill="#80b1d3" stroke="#000000" points="1632.439,-334 1523.561,-334 1523.561,-298 1632.439,-298 1632.439,-334"/>
<text text-anchor="middle" x="1578" y="-311.8" font-family="Times,serif" font-size="14.00" fill="#000000">AppComponent </text>
</g>
<!-- AppModule&#45;&gt;AppComponent  -->
<g id="edge8" class="edge">
<title>AppModule&#45;&gt;AppComponent </title>
<path fill="none" stroke="#000000" stroke-dasharray="1,5" d="M1578,-266.2228C1578,-266.2228 1578,-287.7269 1578,-287.7269"/>
<polygon fill="#000000" stroke="#000000" points="1574.5001,-287.7269 1578,-297.7269 1581.5001,-287.727 1574.5001,-287.7269"/>
</g>
<!-- AppRoutingModule -->
<g id="node7" class="node">
<title>AppRoutingModule</title>
<polygon fill="#8dd3c7" stroke="#000000" points="1700.2744,-198 1697.2744,-202 1676.2744,-202 1673.2744,-198 1571.7256,-198 1571.7256,-162 1700.2744,-162 1700.2744,-198"/>
<text text-anchor="middle" x="1636" y="-175.8" font-family="Times,serif" font-size="14.00" fill="#000000">AppRoutingModule</text>
</g>
<!-- AppRoutingModule&#45;&gt;AppModule -->
<g id="edge5" class="edge">
<title>AppRoutingModule&#45;&gt;AppModule</title>
<path fill="none" stroke="#000000" d="M1595.7206,-198.2228C1595.7206,-198.2228 1595.7206,-219.7269 1595.7206,-219.7269"/>
<polygon fill="#000000" stroke="#000000" points="1592.2206,-219.7269 1595.7206,-229.7269 1599.2206,-219.727 1592.2206,-219.7269"/>
</g>
<!-- CoreModule -->
<g id="node8" class="node">
<title>CoreModule</title>
<polygon fill="#8dd3c7" stroke="#000000" points="1553.2619,-198 1550.2619,-202 1529.2619,-202 1526.2619,-198 1466.7381,-198 1466.7381,-162 1553.2619,-162 1553.2619,-198"/>
<text text-anchor="middle" x="1510" y="-175.8" font-family="Times,serif" font-size="14.00" fill="#000000">CoreModule</text>
</g>
<!-- CoreModule&#45;&gt;AppModule -->
<g id="edge6" class="edge">
<title>CoreModule&#45;&gt;AppModule</title>
<path fill="none" stroke="#000000" d="M1544.7763,-198.2228C1544.7763,-198.2228 1544.7763,-219.7269 1544.7763,-219.7269"/>
<polygon fill="#000000" stroke="#000000" points="1541.2764,-219.7269 1544.7763,-229.7269 1548.2764,-219.727 1541.2764,-219.7269"/>
</g>
<!-- HttpErrorInterceptor -->
<g id="node10" class="node">
<title>HttpErrorInterceptor</title>
<ellipse fill="#fdb462" stroke="#000000" cx="1510" cy="-104" rx="90.8665" ry="18"/>
<text text-anchor="middle" x="1510" y="-99.8" font-family="Times,serif" font-size="14.00" fill="#000000">HttpErrorInterceptor</text>
</g>
<!-- HttpErrorInterceptor&#45;&gt;CoreModule -->
<g id="edge9" class="edge">
<title>HttpErrorInterceptor&#45;&gt;CoreModule</title>
<path fill="none" stroke="#000000" d="M1510,-122.0109C1510,-122.0109 1510,-151.855 1510,-151.855"/>
<polygon fill="#000000" stroke="#000000" points="1506.5001,-151.8549 1510,-161.855 1513.5001,-151.855 1506.5001,-151.8549"/>
</g>
<!-- AuthenticatedComponent -->
<g id="node11" class="node">
<title>AuthenticatedComponent</title>
<polygon fill="#ffffb3" stroke="#000000" points="2829.8599,-198 2670.1401,-198 2670.1401,-162 2829.8599,-162 2829.8599,-198"/>
<text text-anchor="middle" x="2750" y="-175.8" font-family="Times,serif" font-size="14.00" fill="#000000">AuthenticatedComponent</text>
</g>
<!-- AuthenticatedComponent&#45;&gt;ExamplesModule -->
<g id="edge10" class="edge">
<title>AuthenticatedComponent&#45;&gt;ExamplesModule</title>
<path fill="none" stroke="#000000" d="M2750,-198.302C2750,-216.2699 2750,-241 2750,-241 2750,-241 3305.5063,-241 3305.5063,-241"/>
<polygon fill="#000000" stroke="#000000" points="3305.5064,-244.5001 3315.5063,-241 3305.5063,-237.5001 3305.5064,-244.5001"/>
</g>
<!-- ChildComponent -->
<g id="node12" class="node">
<title>ChildComponent</title>
<polygon fill="#ffffb3" stroke="#000000" points="2652.4511,-198 2539.5489,-198 2539.5489,-162 2652.4511,-162 2652.4511,-198"/>
<text text-anchor="middle" x="2596" y="-175.8" font-family="Times,serif" font-size="14.00" fill="#000000">ChildComponent</text>
</g>
<!-- ChildComponent&#45;&gt;ExamplesModule -->
<g id="edge11" class="edge">
<title>ChildComponent&#45;&gt;ExamplesModule</title>
<path fill="none" stroke="#000000" d="M2596,-198.1061C2596,-217.3391 2596,-245 2596,-245 2596,-245 3305.5498,-245 3305.5498,-245"/>
<polygon fill="#000000" stroke="#000000" points="3305.5498,-248.5001 3315.5498,-245 3305.5498,-241.5001 3305.5498,-248.5001"/>
</g>
<!-- ComplexParameterComponent -->
<g id="node13" class="node">
<title>ComplexParameterComponent</title>
<polygon fill="#ffffb3" stroke="#000000" points="5123.9086,-198 4934.0914,-198 4934.0914,-162 5123.9086,-162 5123.9086,-198"/>
<text text-anchor="middle" x="5029" y="-175.8" font-family="Times,serif" font-size="14.00" fill="#000000">ComplexParameterComponent</text>
</g>
<!-- ComplexParameterComponent&#45;&gt;ExamplesModule -->
<g id="edge12" class="edge">
<title>ComplexParameterComponent&#45;&gt;ExamplesModule</title>
<path fill="none" stroke="#000000" d="M5029,-198.0098C5029,-222.4207 5029,-263 5029,-263 5029,-263 3440.4842,-263 3440.4842,-263"/>
<polygon fill="#000000" stroke="#000000" points="3440.4842,-259.5001 3430.4842,-263 3440.4841,-266.5001 3440.4842,-259.5001"/>
</g>
<!-- ConfigurationStepComponent -->
<g id="node14" class="node">
<title>ConfigurationStepComponent</title>
<polygon fill="#ffffb3" stroke="#000000" points="4916.2646,-198 4731.7354,-198 4731.7354,-162 4916.2646,-162 4916.2646,-198"/>
<text text-anchor="middle" x="4824" y="-175.8" font-family="Times,serif" font-size="14.00" fill="#000000">ConfigurationStepComponent</text>
</g>
<!-- ConfigurationStepComponent&#45;&gt;ExamplesModule -->
<g id="edge13" class="edge">
<title>ConfigurationStepComponent&#45;&gt;ExamplesModule</title>
<path fill="none" stroke="#000000" d="M4824,-198.3228C4824,-221.6602 4824,-259 4824,-259 4824,-259 3440.3278,-259 3440.3278,-259"/>
<polygon fill="#000000" stroke="#000000" points="3440.3279,-255.5001 3430.3278,-259 3440.3278,-262.5001 3440.3279,-255.5001"/>
</g>
<!-- CreateConfigurationDialogComponent -->
<g id="node15" class="node">
<title>CreateConfigurationDialogComponent</title>
<polygon fill="#ffffb3" stroke="#000000" points="4713.0111,-198 4478.9889,-198 4478.9889,-162 4713.0111,-162 4713.0111,-198"/>
<text text-anchor="middle" x="4596" y="-175.8" font-family="Times,serif" font-size="14.00" fill="#000000">CreateConfigurationDialogComponent</text>
</g>
<!-- CreateConfigurationDialogComponent&#45;&gt;ExamplesModule -->
<g id="edge14" class="edge">
<title>CreateConfigurationDialogComponent&#45;&gt;ExamplesModule</title>
<path fill="none" stroke="#000000" d="M4596,-198.0109C4596,-220.4852 4596,-256 4596,-256 4596,-256 3440.3475,-256 3440.3475,-256"/>
<polygon fill="#000000" stroke="#000000" points="3440.3475,-252.5001 3430.3475,-256 3440.3474,-259.5001 3440.3475,-252.5001"/>
</g>
<!-- CrudComponent -->
<g id="node16" class="node">
<title>CrudComponent</title>
<polygon fill="#ffffb3" stroke="#000000" points="4460.8301,-198 4351.1699,-198 4351.1699,-162 4460.8301,-162 4460.8301,-198"/>
<text text-anchor="middle" x="4406" y="-175.8" font-family="Times,serif" font-size="14.00" fill="#000000">CrudComponent</text>
</g>
<!-- CrudComponent&#45;&gt;ExamplesModule -->
<g id="edge15" class="edge">
<title>CrudComponent&#45;&gt;ExamplesModule</title>
<path fill="none" stroke="#000000" d="M4406,-198.1686C4406,-219.498 4406,-252 4406,-252 4406,-252 3440.3805,-252 3440.3805,-252"/>
<polygon fill="#000000" stroke="#000000" points="3440.3805,-248.5001 3430.3805,-252 3440.3805,-255.5001 3440.3805,-248.5001"/>
</g>
<!-- ExamplesComponent -->
<g id="node17" class="node">
<title>ExamplesComponent</title>
<polygon fill="#ffffb3" stroke="#000000" points="4333.0408,-198 4196.9592,-198 4196.9592,-162 4333.0408,-162 4333.0408,-198"/>
<text text-anchor="middle" x="4265" y="-175.8" font-family="Times,serif" font-size="14.00" fill="#000000">ExamplesComponent</text>
</g>
<!-- ExamplesComponent&#45;&gt;ExamplesModule -->
<g id="edge16" class="edge">
<title>ExamplesComponent&#45;&gt;ExamplesModule</title>
<path fill="none" stroke="#000000" d="M4265,-198.2228C4265,-218.3652 4265,-248 4265,-248 4265,-248 3440.497,-248 3440.497,-248"/>
<polygon fill="#000000" stroke="#000000" points="3440.497,-244.5001 3430.497,-248 3440.497,-251.5001 3440.497,-244.5001"/>
</g>
<!-- FormComponent -->
<g id="node18" class="node">
<title>FormComponent</title>
<polygon fill="#ffffb3" stroke="#000000" points="4178.6667,-198 4067.3333,-198 4067.3333,-162 4178.6667,-162 4178.6667,-198"/>
<text text-anchor="middle" x="4123" y="-175.8" font-family="Times,serif" font-size="14.00" fill="#000000">FormComponent</text>
</g>
<!-- FormComponent&#45;&gt;ExamplesModule -->
<g id="edge17" class="edge">
<title>FormComponent&#45;&gt;ExamplesModule</title>
<path fill="none" stroke="#000000" d="M4123,-198.1061C4123,-217.3391 4123,-245 4123,-245 4123,-245 3440.2963,-245 3440.2963,-245"/>
<polygon fill="#000000" stroke="#000000" points="3440.2964,-241.5001 3430.2963,-245 3440.2963,-248.5001 3440.2964,-241.5001"/>
</g>
<!-- FormToolbarComponent -->
<g id="node19" class="node">
<title>FormToolbarComponent</title>
<polygon fill="#ffffb3" stroke="#000000" points="4048.9846,-198 3893.0154,-198 3893.0154,-162 4048.9846,-162 4048.9846,-198"/>
<text text-anchor="middle" x="3971" y="-175.8" font-family="Times,serif" font-size="14.00" fill="#000000">FormToolbarComponent</text>
</g>
<!-- FormToolbarComponent&#45;&gt;ExamplesModule -->
<g id="edge18" class="edge">
<title>FormToolbarComponent&#45;&gt;ExamplesModule</title>
<path fill="none" stroke="#000000" d="M3971,-198.302C3971,-216.2699 3971,-241 3971,-241 3971,-241 3440.3388,-241 3440.3388,-241"/>
<polygon fill="#000000" stroke="#000000" points="3440.3388,-237.5001 3430.3388,-241 3440.3387,-244.5001 3440.3388,-237.5001"/>
</g>
<!-- NotificationsComponent -->
<g id="node20" class="node">
<title>NotificationsComponent</title>
<polygon fill="#ffffb3" stroke="#000000" points="3875.427,-198 3720.573,-198 3720.573,-162 3875.427,-162 3875.427,-198"/>
<text text-anchor="middle" x="3798" y="-175.8" font-family="Times,serif" font-size="14.00" fill="#000000">NotificationsComponent</text>
</g>
<!-- NotificationsComponent&#45;&gt;ExamplesModule -->
<g id="edge19" class="edge">
<title>NotificationsComponent&#45;&gt;ExamplesModule</title>
<path fill="none" stroke="#000000" d="M3798,-198.0336C3798,-215.0597 3798,-238 3798,-238 3798,-238 3440.3174,-238 3440.3174,-238"/>
<polygon fill="#000000" stroke="#000000" points="3440.3174,-234.5001 3430.3174,-238 3440.3174,-241.5001 3440.3174,-234.5001"/>
</g>
<!-- ParentComponent -->
<g id="node21" class="node">
<title>ParentComponent</title>
<polygon fill="#ffffb3" stroke="#000000" points="3702.5954,-198 3585.4046,-198 3585.4046,-162 3702.5954,-162 3702.5954,-198"/>
<text text-anchor="middle" x="3644" y="-175.8" font-family="Times,serif" font-size="14.00" fill="#000000">ParentComponent</text>
</g>
<!-- ParentComponent&#45;&gt;ExamplesModule -->
<g id="edge20" class="edge">
<title>ParentComponent&#45;&gt;ExamplesModule</title>
<path fill="none" stroke="#000000" d="M3644,-198.2819C3644,-213.9478 3644,-234 3644,-234 3644,-234 3440.4721,-234 3440.4721,-234"/>
<polygon fill="#000000" stroke="#000000" points="3440.4722,-230.5001 3430.4721,-234 3440.4721,-237.5001 3440.4722,-230.5001"/>
</g>
<!-- SimpleParameterComponent -->
<g id="node22" class="node">
<title>SimpleParameterComponent</title>
<polygon fill="#ffffb3" stroke="#000000" points="3567.745,-198 3390.255,-198 3390.255,-162 3567.745,-162 3567.745,-198"/>
<text text-anchor="middle" x="3479" y="-175.8" font-family="Times,serif" font-size="14.00" fill="#000000">SimpleParameterComponent</text>
</g>
<!-- SimpleParameterComponent&#45;&gt;ExamplesModule -->
<g id="edge21" class="edge">
<title>SimpleParameterComponent&#45;&gt;ExamplesModule</title>
<path fill="none" stroke="#000000" d="M3410.2532,-198.2228C3410.2532,-198.2228 3410.2532,-219.7269 3410.2532,-219.7269"/>
<polygon fill="#000000" stroke="#000000" points="3406.7532,-219.7269 3410.2532,-229.7269 3413.7532,-219.727 3406.7532,-219.7269"/>
</g>
<!-- StockMarketContainerComponent -->
<g id="node23" class="node">
<title>StockMarketContainerComponent</title>
<polygon fill="#ffffb3" stroke="#000000" points="3372.3529,-198 3163.6471,-198 3163.6471,-162 3372.3529,-162 3372.3529,-198"/>
<text text-anchor="middle" x="3268" y="-175.8" font-family="Times,serif" font-size="14.00" fill="#000000">StockMarketContainerComponent</text>
</g>
<!-- StockMarketContainerComponent&#45;&gt;ExamplesModule -->
<g id="edge22" class="edge">
<title>StockMarketContainerComponent&#45;&gt;ExamplesModule</title>
<path fill="none" stroke="#000000" d="M3353.4914,-198.2228C3353.4914,-198.2228 3353.4914,-219.7269 3353.4914,-219.7269"/>
<polygon fill="#000000" stroke="#000000" points="3349.9915,-219.7269 3353.4914,-229.7269 3356.9915,-219.727 3349.9915,-219.7269"/>
</g>
<!-- TodosContainerComponent -->
<g id="node24" class="node">
<title>TodosContainerComponent</title>
<polygon fill="#ffffb3" stroke="#000000" points="3145.5378,-198 2974.4622,-198 2974.4622,-162 3145.5378,-162 3145.5378,-198"/>
<text text-anchor="middle" x="3060" y="-175.8" font-family="Times,serif" font-size="14.00" fill="#000000">TodosContainerComponent</text>
</g>
<!-- TodosContainerComponent&#45;&gt;ExamplesModule -->
<g id="edge23" class="edge">
<title>TodosContainerComponent&#45;&gt;ExamplesModule</title>
<path fill="none" stroke="#000000" d="M3060,-198.2819C3060,-213.9478 3060,-234 3060,-234 3060,-234 3305.591,-234 3305.591,-234"/>
<polygon fill="#000000" stroke="#000000" points="3305.591,-237.5001 3315.591,-234 3305.5909,-230.5001 3305.591,-237.5001"/>
</g>
<!-- UserComponent -->
<g id="node25" class="node">
<title>UserComponent</title>
<polygon fill="#ffffb3" stroke="#000000" points="2955.7591,-198 2848.2409,-198 2848.2409,-162 2955.7591,-162 2955.7591,-198"/>
<text text-anchor="middle" x="2902" y="-175.8" font-family="Times,serif" font-size="14.00" fill="#000000">UserComponent</text>
</g>
<!-- UserComponent&#45;&gt;ExamplesModule -->
<g id="edge24" class="edge">
<title>UserComponent&#45;&gt;ExamplesModule</title>
<path fill="none" stroke="#000000" d="M2902,-198.0336C2902,-215.0597 2902,-238 2902,-238 2902,-238 3305.717,-238 3305.717,-238"/>
<polygon fill="#000000" stroke="#000000" points="3305.7171,-241.5001 3315.717,-238 3305.717,-234.5001 3305.7171,-241.5001"/>
</g>
<!-- ExamplesRoutingModule -->
<g id="node27" class="node">
<title>ExamplesRoutingModule</title>
<polygon fill="#8dd3c7" stroke="#000000" points="2515.8752,-198 2512.8752,-202 2491.8752,-202 2488.8752,-198 2356.1248,-198 2356.1248,-162 2515.8752,-162 2515.8752,-198"/>
<text text-anchor="middle" x="2436" y="-175.8" font-family="Times,serif" font-size="14.00" fill="#000000">ExamplesRoutingModule</text>
</g>
<!-- ExamplesRoutingModule&#45;&gt;ExamplesModule -->
<g id="edge25" class="edge">
<title>ExamplesRoutingModule&#45;&gt;ExamplesModule</title>
<path fill="none" stroke="#000000" d="M2436,-198.2228C2436,-218.3652 2436,-248 2436,-248 2436,-248 3305.4457,-248 3305.4457,-248"/>
<polygon fill="#000000" stroke="#000000" points="3305.4458,-251.5001 3315.4457,-248 3305.4457,-244.5001 3305.4458,-251.5001"/>
</g>
<!-- FormsService -->
<g id="node28" class="node">
<title>FormsService</title>
<ellipse fill="#fdb462" stroke="#000000" cx="2133" cy="-180" rx="64.8428" ry="18"/>
<text text-anchor="middle" x="2133" y="-175.8" font-family="Times,serif" font-size="14.00" fill="#000000">FormsService</text>
</g>
<!-- FormsService&#45;&gt;ExamplesModule -->
<g id="edge27" class="edge">
<title>FormsService&#45;&gt;ExamplesModule</title>
<path fill="none" stroke="#000000" d="M2133,-198.0109C2133,-220.4852 2133,-256 2133,-256 2133,-256 3305.6791,-256 3305.6791,-256"/>
<polygon fill="#000000" stroke="#000000" points="3305.6792,-259.5001 3315.6791,-256 3305.6791,-252.5001 3305.6792,-259.5001"/>
</g>
<!-- StockMarketService -->
<g id="node29" class="node">
<title>StockMarketService</title>
<ellipse fill="#fdb462" stroke="#000000" cx="1960" cy="-180" rx="89.7441" ry="18"/>
<text text-anchor="middle" x="1960" y="-175.8" font-family="Times,serif" font-size="14.00" fill="#000000">StockMarketService</text>
</g>
<!-- StockMarketService&#45;&gt;ExamplesModule -->
<g id="edge28" class="edge">
<title>StockMarketService&#45;&gt;ExamplesModule</title>
<path fill="none" stroke="#000000" d="M1960,-198.3228C1960,-221.6602 1960,-259 1960,-259 1960,-259 3305.4173,-259 3305.4173,-259"/>
<polygon fill="#000000" stroke="#000000" points="3305.4174,-262.5001 3315.4173,-259 3305.4173,-255.5001 3305.4174,-262.5001"/>
</g>
<!-- UserService -->
<g id="node30" class="node">
<title>UserService</title>
<ellipse fill="#fdb462" stroke="#000000" cx="2274" cy="-180" rx="58.4415" ry="18"/>
<text text-anchor="middle" x="2274" y="-175.8" font-family="Times,serif" font-size="14.00" fill="#000000">UserService</text>
</g>
<!-- UserService&#45;&gt;ExamplesModule -->
<g id="edge29" class="edge">
<title>UserService&#45;&gt;ExamplesModule</title>
<path fill="none" stroke="#000000" d="M2274,-198.1686C2274,-219.498 2274,-252 2274,-252 2274,-252 3305.4603,-252 3305.4603,-252"/>
<polygon fill="#000000" stroke="#000000" points="3305.4604,-255.5001 3315.4603,-252 3305.4603,-248.5001 3305.4604,-255.5001"/>
</g>
<!-- FeatureListComponent -->
<g id="node31" class="node">
<title>FeatureListComponent</title>
<polygon fill="#ffffb3" stroke="#000000" points="5501.5884,-198 5356.4116,-198 5356.4116,-162 5501.5884,-162 5501.5884,-198"/>
<text text-anchor="middle" x="5429" y="-175.8" font-family="Times,serif" font-size="14.00" fill="#000000">FeatureListComponent</text>
</g>
<!-- FeatureListComponent&#45;&gt;FeatureListModule -->
<g id="edge30" class="edge">
<title>FeatureListComponent&#45;&gt;FeatureListModule</title>
<path fill="none" stroke="#000000" d="M5429,-198.2228C5429,-218.3652 5429,-248 5429,-248 5429,-248 5319.7837,-248 5319.7837,-248"/>
<polygon fill="#000000" stroke="#000000" points="5319.7837,-244.5001 5309.7837,-248 5319.7837,-251.5001 5319.7837,-244.5001"/>
</g>
<!-- FeatureListRoutingModule -->
<g id="node33" class="node">
<title>FeatureListRoutingModule</title>
<polygon fill="#8dd3c7" stroke="#000000" points="5332.4241,-198 5329.4241,-202 5308.4241,-202 5305.4241,-198 5163.5759,-198 5163.5759,-162 5332.4241,-162 5332.4241,-198"/>
<text text-anchor="middle" x="5248" y="-175.8" font-family="Times,serif" font-size="14.00" fill="#000000">FeatureListRoutingModule</text>
</g>
<!-- FeatureListRoutingModule&#45;&gt;FeatureListModule -->
<g id="edge31" class="edge">
<title>FeatureListRoutingModule&#45;&gt;FeatureListModule</title>
<path fill="none" stroke="#000000" d="M5268.551,-198.2228C5268.551,-198.2228 5268.551,-219.7269 5268.551,-219.7269"/>
<polygon fill="#000000" stroke="#000000" points="5265.0511,-219.7269 5268.551,-229.7269 5272.0511,-219.727 5265.0511,-219.7269"/>
</g>
<!-- SettingsContainerComponent -->
<g id="node34" class="node">
<title>SettingsContainerComponent</title>
<polygon fill="#ffffb3" stroke="#000000" points="5897.6539,-198 5716.3461,-198 5716.3461,-162 5897.6539,-162 5897.6539,-198"/>
<text text-anchor="middle" x="5807" y="-175.8" font-family="Times,serif" font-size="14.00" fill="#000000">SettingsContainerComponent</text>
</g>
<!-- SettingsContainerComponent&#45;&gt;SettingsModule -->
<g id="edge33" class="edge">
<title>SettingsContainerComponent&#45;&gt;SettingsModule</title>
<path fill="none" stroke="#000000" d="M5807,-198.2228C5807,-218.3652 5807,-248 5807,-248 5807,-248 5679.1696,-248 5679.1696,-248"/>
<polygon fill="#000000" stroke="#000000" points="5679.1697,-244.5001 5669.1696,-248 5679.1696,-251.5001 5679.1697,-244.5001"/>
</g>
<!-- SettingsRoutingModule -->
<g id="node36" class="node">
<title>SettingsRoutingModule</title>
<polygon fill="#8dd3c7" stroke="#000000" points="5691.7814,-198 5688.7814,-202 5667.7814,-202 5664.7814,-198 5542.2186,-198 5542.2186,-162 5691.7814,-162 5691.7814,-198"/>
<text text-anchor="middle" x="5617" y="-175.8" font-family="Times,serif" font-size="14.00" fill="#000000">SettingsRoutingModule</text>
</g>
<!-- SettingsRoutingModule&#45;&gt;SettingsModule -->
<g id="edge34" class="edge">
<title>SettingsRoutingModule&#45;&gt;SettingsModule</title>
<path fill="none" stroke="#000000" d="M5634.4439,-198.2228C5634.4439,-198.2228 5634.4439,-219.7269 5634.4439,-219.7269"/>
<polygon fill="#000000" stroke="#000000" points="5630.944,-219.7269 5634.4439,-229.7269 5637.944,-219.727 5630.944,-219.7269"/>
</g>
<!-- BigInputActionComponent -->
<g id="node37" class="node">
<title>BigInputActionComponent</title>
<polygon fill="#ffffb3" stroke="#000000" points="1279.7133,-266 1110.2867,-266 1110.2867,-230 1279.7133,-230 1279.7133,-266"/>
<text text-anchor="middle" x="1195" y="-243.8" font-family="Times,serif" font-size="14.00" fill="#000000">BigInputActionComponent</text>
</g>
<!-- BigInputActionComponent&#45;&gt;SharedModule -->
<g id="edge36" class="edge">
<title>BigInputActionComponent&#45;&gt;SharedModule</title>
<path fill="none" stroke="#000000" d="M1195,-229.9733C1195,-209.2328 1195,-178 1195,-178 1195,-178 430.3829,-178 430.3829,-178"/>
<polygon fill="#000000" stroke="#000000" points="430.3829,-174.5001 420.3829,-178 430.3828,-181.5001 430.3829,-174.5001"/>
</g>
<!-- BigInputComponent -->
<g id="node38" class="node">
<title>BigInputComponent</title>
<polygon fill="#ffffb3" stroke="#000000" points="1092.6108,-266 961.3892,-266 961.3892,-230 1092.6108,-230 1092.6108,-266"/>
<text text-anchor="middle" x="1027" y="-243.8" font-family="Times,serif" font-size="14.00" fill="#000000">BigInputComponent</text>
</g>
<!-- BigInputComponent&#45;&gt;SharedModule -->
<g id="edge37" class="edge">
<title>BigInputComponent&#45;&gt;SharedModule</title>
<path fill="none" stroke="#000000" d="M1027,-229.8939C1027,-210.6609 1027,-183 1027,-183 1027,-183 430.3066,-183 430.3066,-183"/>
<polygon fill="#000000" stroke="#000000" points="430.3067,-179.5001 420.3066,-183 430.3066,-186.5001 430.3067,-179.5001"/>
</g>
<!-- RtlSupportDirective -->
<g id="node39" class="node">
<title>RtlSupportDirective</title>
<polygon fill="#ffffb3" stroke="#000000" points="1426.5352,-266 1297.4648,-266 1297.4648,-230 1426.5352,-230 1426.5352,-266"/>
<text text-anchor="middle" x="1362" y="-243.8" font-family="Times,serif" font-size="14.00" fill="#000000">RtlSupportDirective</text>
</g>
<!-- RtlSupportDirective&#45;&gt;SharedModule -->
<g id="edge38" class="edge">
<title>RtlSupportDirective&#45;&gt;SharedModule</title>
<path fill="none" stroke="#000000" d="M1358.1498,-229.8446C1358.1498,-207.6481 1358.1498,-173 1358.1498,-173 1358.1498,-173 430.2906,-173 430.2906,-173"/>
<polygon fill="#000000" stroke="#000000" points="430.2907,-169.5001 420.2906,-173 430.2906,-176.5001 430.2907,-169.5001"/>
</g>
</g>
</svg>
