<?xml version="1.0" encoding="UTF-8" standalone="no"?>
<!DOCTYPE svg PUBLIC "-//W3C//DTD SVG 1.1//EN"
 "http://www.w3.org/Graphics/SVG/1.1/DTD/svg11.dtd">
<!-- Generated by graphviz version 2.40.1 (20161225.0304)
 -->
<!-- Title: dependencies Pages: 1 -->
<svg width="852pt" height="284pt"
 viewBox="0.00 0.00 852.00 284.00" xmlns="http://www.w3.org/2000/svg" xmlns:xlink="http://www.w3.org/1999/xlink">
<g id="graph0" class="graph" transform="scale(1 1) rotate(0) translate(4 280)">
<title>dependencies</title>
<polygon fill="#ffffff" stroke="transparent" points="-4,4 -4,-280 848,-280 848,4 -4,4"/>
<text text-anchor="start" x="401.0091" y="-42.4" font-family="sans-serif" font-weight="bold" font-size="14.00" fill="#000000">Legend</text>
<polygon fill="#ffffb3" stroke="transparent" points="188,-10 188,-30 208,-30 208,-10 188,-10"/>
<text text-anchor="start" x="211.629" y="-15.4" font-family="sans-serif" font-size="14.00" fill="#000000"> &#160;Declarations</text>
<polygon fill="#8dd3c7" stroke="transparent" points="301,-10 301,-30 321,-30 321,-10 301,-10"/>
<text text-anchor="start" x="324.7251" y="-15.4" font-family="sans-serif" font-size="14.00" fill="#000000"> &#160;Module</text>
<polygon fill="#80b1d3" stroke="transparent" points="387,-10 387,-30 407,-30 407,-10 387,-10"/>
<text text-anchor="start" x="410.7812" y="-15.4" font-family="sans-serif" font-size="14.00" fill="#000000"> &#160;Bootstrap</text>
<polygon fill="#fdb462" stroke="transparent" points="484,-10 484,-30 504,-30 504,-10 484,-10"/>
<text text-anchor="start" x="507.6732" y="-15.4" font-family="sans-serif" font-size="14.00" fill="#000000"> &#160;Providers</text>
<polygon fill="#fb8072" stroke="transparent" points="580,-10 580,-30 600,-30 600,-10 580,-10"/>
<text text-anchor="start" x="603.7258" y="-15.4" font-family="sans-serif" font-size="14.00" fill="#000000"> &#160;Exports</text>
<g id="clust1" class="cluster">
<title>cluster_AppModule</title>
<polygon fill="none" stroke="#000000" stroke-dasharray="1,5" points="8,-70 8,-268 836,-268 836,-70 8,-70"/>
</g>
<g id="clust2" class="cluster">
<title>cluster_AppModule_declarations</title>
<polygon fill="none" stroke="#000000" points="706,-78 706,-130 828,-130 828,-78 706,-78"/>
</g>
<g id="clust4" class="cluster">
<title>cluster_AppModule_imports</title>
<polygon fill="none" stroke="#000000" points="16,-78 16,-130 698,-130 698,-78 16,-78"/>
</g>
<g id="clust6" class="cluster">
<title>cluster_AppModule_bootstrap</title>
<polygon fill="none" stroke="#000000" points="326,-208 326,-260 450,-260 450,-208 326,-208"/>
</g>
<!-- AppComponent -->
<g id="node1" class="node">
<title>AppComponent</title>
<polygon fill="#ffffb3" stroke="#000000" points="819.9399,-122 714.0601,-122 714.0601,-86 819.9399,-86 819.9399,-122"/>
<text text-anchor="middle" x="767" y="-99.8" font-family="Times,serif" font-size="14.00" fill="#000000">AppComponent</text>
</g>
<!-- AppModule -->
<g id="node2" class="node">
<title>AppModule</title>
<polygon fill="#8dd3c7" stroke="#000000" points="429.6571,-187 426.6571,-191 405.6571,-191 402.6571,-187 346.3429,-187 346.3429,-151 429.6571,-151 429.6571,-187"/>
<text text-anchor="middle" x="388" y="-164.8" font-family="Times,serif" font-size="14.00" fill="#000000">AppModule</text>
</g>
<!-- AppComponent&#45;&gt;AppModule -->
<g id="edge1" class="edge">
<title>AppComponent&#45;&gt;AppModule</title>
<path fill="none" stroke="#000000" d="M767,-122.2843C767,-143.3211 767,-175 767,-175 767,-175 440.0077,-175 440.0077,-175"/>
<polygon fill="#000000" stroke="#000000" points="440.0077,-171.5001 430.0077,-175 440.0077,-178.5001 440.0077,-171.5001"/>
</g>
<!-- AppComponent  -->
<g id="node8" class="node">
<title>AppComponent </title>
<polygon fill="#80b1d3" stroke="#000000" points="442.439,-252 333.561,-252 333.561,-216 442.439,-216 442.439,-252"/>
<text text-anchor="middle" x="388" y="-229.8" font-family="Times,serif" font-size="14.00" fill="#000000">AppComponent </text>
</g>
<!-- AppModule&#45;&gt;AppComponent  -->
<g id="edge7" class="edge">
<title>AppModule&#45;&gt;AppComponent </title>
<path fill="none" stroke="#000000" stroke-dasharray="1,5" d="M388,-187.1061C388,-187.1061 388,-205.991 388,-205.991"/>
<polygon fill="#000000" stroke="#000000" points="384.5001,-205.9909 388,-215.991 391.5001,-205.991 384.5001,-205.9909"/>
</g>
<!-- BrowserAnimationsModule -->
<g id="node3" class="node">
<title>BrowserAnimationsModule</title>
<polygon fill="#8dd3c7" stroke="#000000" points="690.3019,-122 687.3019,-126 666.3019,-126 663.3019,-122 517.6981,-122 517.6981,-86 690.3019,-86 690.3019,-122"/>
<text text-anchor="middle" x="604" y="-99.8" font-family="Times,serif" font-size="14.00" fill="#000000">BrowserAnimationsModule</text>
</g>
<!-- BrowserAnimationsModule&#45;&gt;AppModule -->
<g id="edge2" class="edge">
<title>BrowserAnimationsModule&#45;&gt;AppModule</title>
<path fill="none" stroke="#000000" d="M604,-122.0225C604,-139.3734 604,-163 604,-163 604,-163 439.9031,-163 439.9031,-163"/>
<polygon fill="#000000" stroke="#000000" points="439.9031,-159.5001 429.9031,-163 439.9031,-166.5001 439.9031,-159.5001"/>
</g>
<!-- BrowserModule -->
<g id="node4" class="node">
<title>BrowserModule</title>
<polygon fill="#8dd3c7" stroke="#000000" points="499.4734,-122 496.4734,-126 475.4734,-126 472.4734,-122 392.5266,-122 392.5266,-86 499.4734,-86 499.4734,-122"/>
<text text-anchor="middle" x="446" y="-99.8" font-family="Times,serif" font-size="14.00" fill="#000000">BrowserModule</text>
</g>
<!-- BrowserModule&#45;&gt;AppModule -->
<g id="edge3" class="edge">
<title>BrowserModule&#45;&gt;AppModule</title>
<path fill="none" stroke="#000000" d="M411.1708,-122.1061C411.1708,-122.1061 411.1708,-140.991 411.1708,-140.991"/>
<polygon fill="#000000" stroke="#000000" points="407.6708,-140.9909 411.1708,-150.991 414.6708,-140.991 407.6708,-140.9909"/>
</g>
<!-- CoreModule -->
<g id="node5" class="node">
<title>CoreModule</title>
<polygon fill="#8dd3c7" stroke="#000000" points="374.2619,-122 371.2619,-126 350.2619,-126 347.2619,-122 287.7381,-122 287.7381,-86 374.2619,-86 374.2619,-122"/>
<text text-anchor="middle" x="331" y="-99.8" font-family="Times,serif" font-size="14.00" fill="#000000">CoreModule</text>
</g>
<!-- CoreModule&#45;&gt;AppModule -->
<g id="edge4" class="edge">
<title>CoreModule&#45;&gt;AppModule</title>
<path fill="none" stroke="#000000" d="M360.2763,-122.1061C360.2763,-122.1061 360.2763,-140.991 360.2763,-140.991"/>
<polygon fill="#000000" stroke="#000000" points="356.7764,-140.9909 360.2763,-150.991 363.7764,-140.991 356.7764,-140.9909"/>
</g>
<!-- SharedModule -->
<g id="node6" class="node">
<title>SharedModule</title>
<polygon fill="#8dd3c7" stroke="#000000" points="269.4231,-122 266.4231,-126 245.4231,-126 242.4231,-122 170.5769,-122 170.5769,-86 269.4231,-86 269.4231,-122"/>
<text text-anchor="middle" x="220" y="-99.8" font-family="Times,serif" font-size="14.00" fill="#000000">SharedModule</text>
</g>
<!-- SharedModule&#45;&gt;AppModule -->
<g id="edge5" class="edge">
<title>SharedModule&#45;&gt;AppModule</title>
<path fill="none" stroke="#000000" d="M220,-122.0225C220,-139.3734 220,-163 220,-163 220,-163 336.0399,-163 336.0399,-163"/>
<polygon fill="#000000" stroke="#000000" points="336.0399,-166.5001 346.0399,-163 336.0398,-159.5001 336.0399,-166.5001"/>
</g>
<!-- AppRoutingModule -->
<g id="node7" class="node">
<title>AppRoutingModule</title>
<polygon fill="#8dd3c7" stroke="#000000" points="152.2744,-122 149.2744,-126 128.2744,-126 125.2744,-122 23.7256,-122 23.7256,-86 152.2744,-86 152.2744,-122"/>
<text text-anchor="middle" x="88" y="-99.8" font-family="Times,serif" font-size="14.00" fill="#000000">AppRoutingModule</text>
</g>
<!-- AppRoutingModule&#45;&gt;AppModule -->
<g id="edge6" class="edge">
<title>AppRoutingModule&#45;&gt;AppModule</title>
<path fill="none" stroke="#000000" d="M88,-122.2843C88,-143.3211 88,-175 88,-175 88,-175 336.2863,-175 336.2863,-175"/>
<polygon fill="#000000" stroke="#000000" points="336.2863,-178.5001 346.2863,-175 336.2863,-171.5001 336.2863,-178.5001"/>
</g>
</g>
</svg>
